<svg width="193" height="51" viewBox="0 0 193 51" fill="none" xmlns="http://www.w3.org/2000/svg">
<path d="M11.4164 1.07031L14.5336 7.87891L17.6507 1.07031H21.0038L16.0921 10.5654V16H12.975V10.5654L8.05309 1.07031H11.4164ZM20.8245 10.5654V10.3501C20.8245 9.53662 20.9407 8.78809 21.1732 8.10449C21.4056 7.41406 21.744 6.81592 22.1883 6.31006C22.6326 5.8042 23.1795 5.41113 23.8289 5.13086C24.4783 4.84375 25.2235 4.7002 26.0643 4.7002C26.9051 4.7002 27.6536 4.84375 28.3099 5.13086C28.9661 5.41113 29.5164 5.8042 29.9608 6.31006C30.4119 6.81592 30.7537 7.41406 30.9862 8.10449C31.2186 8.78809 31.3348 9.53662 31.3348 10.3501V10.5654C31.3348 11.3721 31.2186 12.1206 30.9862 12.811C30.7537 13.4946 30.4119 14.0928 29.9608 14.6055C29.5164 15.1113 28.9696 15.5044 28.3201 15.7847C27.6707 16.0649 26.9256 16.2051 26.0848 16.2051C25.244 16.2051 24.4954 16.0649 23.8392 15.7847C23.1898 15.5044 22.6395 15.1113 22.1883 14.6055C21.744 14.0928 21.4056 13.4946 21.1732 12.811C20.9407 12.1206 20.8245 11.3721 20.8245 10.5654ZM23.7777 10.3501V10.5654C23.7777 11.0303 23.8187 11.4644 23.9007 11.8677C23.9827 12.271 24.1126 12.6265 24.2904 12.9341C24.4749 13.2349 24.7142 13.4707 25.0081 13.6416C25.3021 13.8125 25.661 13.8979 26.0848 13.8979C26.4949 13.8979 26.847 13.8125 27.1409 13.6416C27.4349 13.4707 27.6707 13.2349 27.8485 12.9341C28.0262 12.6265 28.1561 12.271 28.2381 11.8677C28.327 11.4644 28.3714 11.0303 28.3714 10.5654V10.3501C28.3714 9.89893 28.327 9.4751 28.2381 9.07861C28.1561 8.67529 28.0228 8.31982 27.8382 8.01221C27.6605 7.69775 27.4246 7.45166 27.1307 7.27393C26.8367 7.09619 26.4813 7.00732 26.0643 7.00732C25.6473 7.00732 25.2918 7.09619 24.9979 7.27393C24.7108 7.45166 24.4749 7.69775 24.2904 8.01221C24.1126 8.31982 23.9827 8.67529 23.9007 9.07861C23.8187 9.4751 23.7777 9.89893 23.7777 10.3501ZM39.5022 13.3442V4.90527H42.4554V16H39.6765L39.5022 13.3442ZM39.8304 11.0679L40.7019 11.0474C40.7019 11.7856 40.6165 12.4727 40.4456 13.1084C40.2747 13.7373 40.0183 14.2842 39.6765 14.749C39.3347 15.207 38.9041 15.5659 38.3846 15.8257C37.865 16.0786 37.2532 16.2051 36.5491 16.2051C36.0091 16.2051 35.51 16.1299 35.052 15.9795C34.6009 15.8223 34.2112 15.5796 33.8831 15.2515C33.5618 14.9165 33.3089 14.4893 33.1243 13.9697C32.9466 13.4434 32.8577 12.811 32.8577 12.0728V4.90527H35.8108V12.0933C35.8108 12.4214 35.8484 12.6982 35.9236 12.9238C36.0056 13.1494 36.1184 13.334 36.262 13.4775C36.4055 13.6211 36.573 13.7236 36.7644 13.7852C36.9627 13.8467 37.1814 13.8774 37.4207 13.8774C38.0291 13.8774 38.5076 13.7544 38.8562 13.5083C39.2117 13.2622 39.4612 12.9272 39.6048 12.5034C39.7552 12.0728 39.8304 11.5942 39.8304 11.0679ZM47.4543 7.3252V16H44.5012V4.90527H47.28L47.4543 7.3252ZM50.7971 4.8335L50.7458 7.57129C50.6023 7.55078 50.428 7.53369 50.2229 7.52002C50.0246 7.49951 49.8435 7.48926 49.6794 7.48926C49.2624 7.48926 48.9001 7.54395 48.5925 7.65332C48.2917 7.75586 48.0388 7.90967 47.8337 8.11475C47.6355 8.31982 47.4851 8.56934 47.3826 8.86328C47.2869 9.15723 47.2322 9.49219 47.2185 9.86816L46.6238 9.68359C46.6238 8.96582 46.6955 8.30615 46.8391 7.70459C46.9827 7.09619 47.1912 6.56641 47.4646 6.11523C47.7449 5.66406 48.0867 5.31543 48.49 5.06934C48.8933 4.82324 49.3547 4.7002 49.8743 4.7002C50.0383 4.7002 50.2058 4.71387 50.3767 4.74121C50.5476 4.76172 50.6877 4.79248 50.7971 4.8335ZM65.84 11.0474H68.9059C68.8444 12.0522 68.5675 12.9443 68.0754 13.7236C67.59 14.5029 66.9098 15.1113 66.0348 15.5488C65.1667 15.9863 64.1208 16.2051 62.8971 16.2051C61.9401 16.2051 61.0822 16.041 60.3234 15.7129C59.5646 15.3779 58.9152 14.8994 58.3752 14.2773C57.842 13.6553 57.4352 12.9033 57.1549 12.0215C56.8747 11.1396 56.7345 10.1519 56.7345 9.05811V8.02246C56.7345 6.92871 56.8781 5.94092 57.1652 5.05908C57.4591 4.17041 57.8761 3.41504 58.4162 2.79297C58.963 2.1709 59.6159 1.69238 60.3747 1.35742C61.1335 1.02246 61.9811 0.85498 62.9176 0.85498C64.1618 0.85498 65.2111 1.08057 66.0656 1.53174C66.9269 1.98291 67.5934 2.60498 68.0651 3.39795C68.5436 4.19092 68.8307 5.09326 68.9264 6.10498H65.8503C65.8161 5.50342 65.6964 4.99414 65.4914 4.57715C65.2863 4.15332 64.9753 3.83545 64.5583 3.62354C64.1481 3.40479 63.6012 3.29541 62.9176 3.29541C62.4049 3.29541 61.9572 3.39111 61.5744 3.58252C61.1916 3.77393 60.8703 4.06445 60.6105 4.4541C60.3507 4.84375 60.1559 5.33594 60.026 5.93066C59.903 6.51855 59.8415 7.20898 59.8415 8.00195V9.05811C59.8415 9.83057 59.8996 10.5107 60.0158 11.0986C60.132 11.6797 60.3097 12.1719 60.549 12.5752C60.7951 12.9717 61.1095 13.2725 61.4923 13.4775C61.882 13.6758 62.3503 13.7749 62.8971 13.7749C63.5397 13.7749 64.0695 13.6724 64.4865 13.4673C64.9035 13.2622 65.2213 12.958 65.4401 12.5547C65.6657 12.1514 65.799 11.6489 65.84 11.0474ZM76.5197 13.498V8.55566C76.5197 8.2002 76.4615 7.896 76.3453 7.64307C76.2291 7.3833 76.048 7.18164 75.8019 7.03809C75.5626 6.89453 75.2516 6.82275 74.8688 6.82275C74.5406 6.82275 74.257 6.88086 74.0177 6.99707C73.7784 7.10645 73.5939 7.26709 73.464 7.479C73.3341 7.68408 73.2692 7.92676 73.2692 8.20703H70.316C70.316 7.73535 70.4254 7.2876 70.6442 6.86377C70.8629 6.43994 71.1808 6.06738 71.5978 5.74609C72.0148 5.41797 72.5104 5.16162 73.0846 4.97705C73.6656 4.79248 74.3151 4.7002 75.0328 4.7002C75.8942 4.7002 76.6598 4.84375 77.3297 5.13086C77.9996 5.41797 78.526 5.84863 78.9088 6.42285C79.2985 6.99707 79.4933 7.71484 79.4933 8.57617V13.3237C79.4933 13.9321 79.5309 14.4312 79.6061 14.8208C79.6813 15.2036 79.7906 15.5386 79.9342 15.8257V16H76.9503C76.8068 15.6992 76.6974 15.3232 76.6222 14.8721C76.5538 14.4141 76.5197 13.9561 76.5197 13.498ZM76.9093 9.24268L76.9298 10.9141H75.2789C74.8893 10.9141 74.5509 10.9585 74.2638 11.0474C73.9767 11.1362 73.7408 11.2627 73.5563 11.4268C73.3717 11.584 73.235 11.7686 73.1461 11.9805C73.0641 12.1924 73.0231 12.4248 73.0231 12.6777C73.0231 12.9307 73.0812 13.1597 73.1974 13.3647C73.3136 13.563 73.4811 13.7202 73.6998 13.8364C73.9186 13.9458 74.1749 14.0005 74.4689 14.0005C74.9132 14.0005 75.2994 13.9116 75.6276 13.7339C75.9557 13.5562 76.2086 13.3374 76.3864 13.0776C76.5709 12.8179 76.6666 12.5718 76.6735 12.3394L77.4528 13.5903C77.3434 13.8706 77.193 14.1611 77.0016 14.4619C76.817 14.7627 76.5812 15.0464 76.2941 15.313C76.007 15.5728 75.6617 15.7881 75.2584 15.959C74.8551 16.123 74.3766 16.2051 73.8229 16.2051C73.1188 16.2051 72.4796 16.0649 71.9054 15.7847C71.338 15.4976 70.8868 15.1045 70.5519 14.6055C70.2238 14.0996 70.0597 13.5254 70.0597 12.8828C70.0597 12.3018 70.1691 11.7856 70.3878 11.3345C70.6066 10.8833 70.9279 10.5039 71.3517 10.1963C71.7823 9.88184 72.319 9.646 72.9615 9.48877C73.6041 9.32471 74.3492 9.24268 75.1969 9.24268H76.9093ZM84.5128 7.3252V16H81.5596V4.90527H84.3385L84.5128 7.3252ZM87.8555 4.8335L87.8043 7.57129C87.6607 7.55078 87.4864 7.53369 87.2813 7.52002C87.0831 7.49951 86.9019 7.48926 86.7379 7.48926C86.3209 7.48926 85.9586 7.54395 85.651 7.65332C85.3502 7.75586 85.0972 7.90967 84.8922 8.11475C84.6939 8.31982 84.5435 8.56934 84.441 8.86328C84.3453 9.15723 84.2906 9.49219 84.2769 9.86816L83.6822 9.68359C83.6822 8.96582 83.754 8.30615 83.8975 7.70459C84.0411 7.09619 84.2496 6.56641 84.523 6.11523C84.8033 5.66406 85.1451 5.31543 85.5484 5.06934C85.9517 4.82324 86.4132 4.7002 86.9327 4.7002C87.0968 4.7002 87.2642 4.71387 87.4351 4.74121C87.606 4.76172 87.7462 4.79248 87.8555 4.8335ZM94.9873 4.90527V6.99707H88.5274V4.90527H94.9873ZM90.127 2.16748H93.0801V12.6572C93.0801 12.9785 93.1211 13.2246 93.2032 13.3955C93.292 13.5664 93.4219 13.686 93.5928 13.7544C93.7637 13.8159 93.979 13.8467 94.2388 13.8467C94.4234 13.8467 94.5874 13.8398 94.731 13.8262C94.8814 13.8057 95.0079 13.7852 95.1104 13.7646L95.1206 15.9385C94.8677 16.0205 94.5943 16.0854 94.3003 16.1333C94.0064 16.1812 93.6817 16.2051 93.3262 16.2051C92.6768 16.2051 92.1094 16.0991 91.6241 15.8872C91.1455 15.6685 90.7764 15.3198 90.5166 14.8413C90.2569 14.3628 90.127 13.7339 90.127 12.9546V2.16748ZM104.596 4.90527V16H101.632V4.90527H104.596ZM101.448 2.01367C101.448 1.58301 101.598 1.22754 101.899 0.947266C102.2 0.666992 102.603 0.526855 103.109 0.526855C103.608 0.526855 104.008 0.666992 104.309 0.947266C104.616 1.22754 104.77 1.58301 104.77 2.01367C104.77 2.44434 104.616 2.7998 104.309 3.08008C104.008 3.36035 103.608 3.50049 103.109 3.50049C102.603 3.50049 102.2 3.36035 101.899 3.08008C101.598 2.7998 101.448 2.44434 101.448 2.01367ZM112.825 12.9341C112.825 12.7222 112.763 12.5308 112.64 12.3599C112.517 12.189 112.288 12.0317 111.953 11.8882C111.625 11.7378 111.15 11.6011 110.528 11.478C109.967 11.355 109.444 11.2012 108.959 11.0166C108.48 10.8252 108.063 10.5962 107.708 10.3296C107.359 10.063 107.086 9.74854 106.888 9.38623C106.689 9.01709 106.59 8.59668 106.59 8.125C106.59 7.66016 106.689 7.22266 106.888 6.8125C107.093 6.40234 107.383 6.04004 107.759 5.72559C108.142 5.4043 108.607 5.15479 109.154 4.97705C109.707 4.79248 110.33 4.7002 111.02 4.7002C111.984 4.7002 112.811 4.854 113.501 5.16162C114.199 5.46924 114.732 5.89307 115.101 6.43311C115.477 6.96631 115.665 7.57471 115.665 8.2583H112.712C112.712 7.97119 112.65 7.71484 112.527 7.48926C112.411 7.25684 112.226 7.07568 111.974 6.9458C111.727 6.80908 111.406 6.74072 111.01 6.74072C110.682 6.74072 110.398 6.79883 110.159 6.91504C109.919 7.02441 109.735 7.1748 109.605 7.36621C109.482 7.55078 109.42 7.75586 109.42 7.98145C109.42 8.15234 109.455 8.30615 109.523 8.44287C109.598 8.57275 109.718 8.69238 109.882 8.80176C110.046 8.91113 110.258 9.01367 110.518 9.10938C110.784 9.19824 111.112 9.28027 111.502 9.35547C112.302 9.51953 113.016 9.73486 113.645 10.0015C114.274 10.2612 114.773 10.6167 115.142 11.0679C115.511 11.5122 115.696 12.0967 115.696 12.8213C115.696 13.3135 115.586 13.7646 115.368 14.1748C115.149 14.585 114.834 14.9438 114.424 15.2515C114.014 15.5522 113.522 15.7881 112.948 15.959C112.38 16.123 111.741 16.2051 111.03 16.2051C109.998 16.2051 109.123 16.0205 108.405 15.6514C107.694 15.2822 107.154 14.814 106.785 14.2466C106.423 13.6724 106.242 13.0845 106.242 12.4829H109.041C109.055 12.8862 109.157 13.2109 109.349 13.457C109.547 13.7031 109.796 13.8809 110.097 13.9902C110.405 14.0996 110.736 14.1543 111.092 14.1543C111.475 14.1543 111.792 14.103 112.045 14.0005C112.298 13.8911 112.49 13.7476 112.62 13.5698C112.756 13.3853 112.825 13.1733 112.825 12.9341ZM132.625 13.6006V16H124.679V13.6006H132.625ZM125.683 1.07031V16H122.607V1.07031H125.683ZM131.59 7.15088V9.48877H124.679V7.15088H131.59ZM132.615 1.07031V3.47998H124.679V1.07031H132.615ZM136.978 7.20215V16H134.015V4.90527H136.794L136.978 7.20215ZM136.568 10.063H135.748C135.748 9.29053 135.84 8.57959 136.025 7.93018C136.216 7.27393 136.493 6.70654 136.855 6.22803C137.224 5.74268 137.679 5.3667 138.219 5.1001C138.759 4.8335 139.385 4.7002 140.096 4.7002C140.588 4.7002 141.039 4.77539 141.449 4.92578C141.859 5.06934 142.211 5.29834 142.505 5.61279C142.806 5.92041 143.038 6.32373 143.202 6.82275C143.367 7.31494 143.449 7.90625 143.449 8.59668V16H140.495V8.9248C140.495 8.41895 140.427 8.0293 140.29 7.75586C140.154 7.48242 139.959 7.29102 139.706 7.18164C139.46 7.07227 139.162 7.01758 138.814 7.01758C138.431 7.01758 138.096 7.09619 137.809 7.25342C137.529 7.41064 137.296 7.62939 137.112 7.90967C136.927 8.18311 136.79 8.50439 136.701 8.87354C136.613 9.24268 136.568 9.63916 136.568 10.063ZM143.172 9.72461L142.116 9.85791C142.116 9.1333 142.204 8.45996 142.382 7.83789C142.567 7.21582 142.837 6.66895 143.192 6.19727C143.554 5.72559 144.002 5.35986 144.535 5.1001C145.069 4.8335 145.684 4.7002 146.381 4.7002C146.914 4.7002 147.4 4.77881 147.837 4.93604C148.275 5.08643 148.647 5.3291 148.955 5.66406C149.269 5.99219 149.509 6.42285 149.673 6.95605C149.844 7.48926 149.929 8.14209 149.929 8.91455V16H146.966V8.91455C146.966 8.40186 146.897 8.01221 146.761 7.74561C146.631 7.47217 146.439 7.28418 146.186 7.18164C145.94 7.07227 145.646 7.01758 145.304 7.01758C144.949 7.01758 144.638 7.08936 144.371 7.23291C144.105 7.36963 143.883 7.56104 143.705 7.80713C143.527 8.05322 143.394 8.34033 143.305 8.66846C143.216 8.98975 143.172 9.3418 143.172 9.72461ZM154.959 7.03809V20.2656H152.006V4.90527H154.743L154.959 7.03809ZM161.983 10.3296V10.5449C161.983 11.3516 161.887 12.1001 161.696 12.7905C161.511 13.481 161.238 14.0825 160.875 14.5952C160.513 15.1011 160.062 15.4976 159.522 15.7847C158.989 16.0649 158.373 16.2051 157.676 16.2051C156.999 16.2051 156.411 16.0684 155.912 15.7949C155.413 15.5215 154.993 15.1387 154.651 14.6465C154.316 14.1475 154.046 13.5698 153.841 12.9136C153.636 12.2573 153.479 11.5532 153.369 10.8013V10.2373C153.479 9.43066 153.636 8.69238 153.841 8.02246C154.046 7.3457 154.316 6.76123 154.651 6.26904C154.993 5.77002 155.41 5.38379 155.902 5.11035C156.401 4.83691 156.986 4.7002 157.656 4.7002C158.36 4.7002 158.978 4.8335 159.511 5.1001C160.052 5.3667 160.503 5.74951 160.865 6.24854C161.234 6.74756 161.511 7.34229 161.696 8.03271C161.887 8.72314 161.983 9.48877 161.983 10.3296ZM159.019 10.5449V10.3296C159.019 9.85791 158.978 9.42383 158.896 9.02734C158.821 8.62402 158.698 8.27197 158.527 7.97119C158.363 7.67041 158.144 7.43799 157.871 7.27393C157.604 7.10303 157.28 7.01758 156.897 7.01758C156.493 7.01758 156.148 7.08252 155.861 7.2124C155.581 7.34229 155.352 7.53027 155.174 7.77637C154.996 8.02246 154.863 8.31641 154.774 8.6582C154.685 9 154.631 9.38623 154.61 9.81689V11.2422C154.644 11.748 154.74 12.2026 154.897 12.606C155.054 13.0024 155.297 13.3169 155.625 13.5493C155.953 13.7817 156.384 13.8979 156.917 13.8979C157.307 13.8979 157.635 13.8125 157.902 13.6416C158.168 13.4639 158.384 13.2212 158.548 12.9136C158.719 12.606 158.838 12.2505 158.907 11.8472C158.982 11.4438 159.019 11.0098 159.019 10.5449ZM169.043 4.90527V6.99707H162.583V4.90527H169.043ZM164.182 2.16748H167.135V12.6572C167.135 12.9785 167.176 13.2246 167.259 13.3955C167.347 13.5664 167.477 13.686 167.648 13.7544C167.819 13.8159 168.034 13.8467 168.294 13.8467C168.479 13.8467 168.643 13.8398 168.786 13.8262C168.937 13.8057 169.063 13.7852 169.166 13.7646L169.176 15.9385C168.923 16.0205 168.65 16.0854 168.356 16.1333C168.062 16.1812 167.737 16.2051 167.382 16.2051C166.732 16.2051 166.165 16.0991 165.679 15.8872C165.201 15.6685 164.832 15.3198 164.572 14.8413C164.312 14.3628 164.182 13.7339 164.182 12.9546V2.16748ZM173.806 14.749L176.749 4.90527H179.917L175.457 17.6714C175.361 17.9517 175.231 18.2524 175.067 18.5737C174.91 18.895 174.695 19.1992 174.421 19.4863C174.154 19.7803 173.816 20.0195 173.406 20.2041C173.003 20.3887 172.507 20.481 171.919 20.481C171.639 20.481 171.41 20.4639 171.232 20.4297C171.054 20.3955 170.842 20.3477 170.596 20.2861V18.1226C170.672 18.1226 170.75 18.1226 170.832 18.1226C170.914 18.1294 170.993 18.1328 171.068 18.1328C171.458 18.1328 171.776 18.0884 172.022 17.9995C172.268 17.9106 172.466 17.7739 172.616 17.5894C172.767 17.4116 172.886 17.1792 172.975 16.8921L173.806 14.749ZM172.575 4.90527L174.985 12.9443L175.405 16.0718L173.396 16.2871L169.407 4.90527H172.575Z" fill="black"/>
<path d="M10.1088 41.0474H13.1747C13.1132 42.0522 12.8363 42.9443 12.3441 43.7236C11.8588 44.5029 11.1786 45.1113 10.3036 45.5488C9.43545 45.9863 8.38955 46.2051 7.16592 46.2051C6.20889 46.2051 5.35098 46.041 4.59219 45.7129C3.8334 45.3779 3.18398 44.8994 2.64394 44.2773C2.11074 43.6553 1.704 42.9033 1.42373 42.0215C1.14346 41.1396 1.00332 40.1519 1.00332 39.0581V38.0225C1.00332 36.9287 1.14687 35.9409 1.43398 35.0591C1.72793 34.1704 2.14492 33.415 2.68496 32.793C3.23183 32.1709 3.88467 31.6924 4.64346 31.3574C5.40224 31.0225 6.2499 30.855 7.18642 30.855C8.43056 30.855 9.47988 31.0806 10.3344 31.5317C11.1957 31.9829 11.8622 32.605 12.3339 33.3979C12.8124 34.1909 13.0995 35.0933 13.1952 36.105H10.119C10.0849 35.5034 9.96523 34.9941 9.76015 34.5771C9.55508 34.1533 9.24404 33.8354 8.82705 33.6235C8.41689 33.4048 7.87002 33.2954 7.18642 33.2954C6.67373 33.2954 6.22598 33.3911 5.84316 33.5825C5.46035 33.7739 5.13906 34.0645 4.8793 34.4541C4.61953 34.8438 4.42471 35.3359 4.29482 35.9307C4.17178 36.5186 4.11025 37.209 4.11025 38.002V39.0581C4.11025 39.8306 4.16836 40.5107 4.28457 41.0986C4.40078 41.6797 4.57851 42.1719 4.81777 42.5752C5.06387 42.9717 5.37832 43.2725 5.76113 43.4775C6.15078 43.6758 6.61904 43.7749 7.16592 43.7749C7.80849 43.7749 8.33828 43.6724 8.75527 43.4673C9.17226 43.2622 9.49014 42.958 9.70889 42.5547C9.93447 42.1514 10.0678 41.6489 10.1088 41.0474ZM17.9173 30.25V46H14.954V30.25H17.9173ZM23.265 34.9053V46H20.3016V34.9053H23.265ZM20.117 32.0137C20.117 31.583 20.2674 31.2275 20.5682 30.9473C20.869 30.667 21.2723 30.5269 21.7781 30.5269C22.2772 30.5269 22.6771 30.667 22.9778 30.9473C23.2855 31.2275 23.4393 31.583 23.4393 32.0137C23.4393 32.4443 23.2855 32.7998 22.9778 33.0801C22.6771 33.3604 22.2772 33.5005 21.7781 33.5005C21.2723 33.5005 20.869 33.3604 20.5682 33.0801C20.2674 32.7998 20.117 32.4443 20.117 32.0137ZM30.0789 43.8979C30.4412 43.8979 30.7625 43.8296 31.0428 43.6929C31.323 43.5493 31.5418 43.3511 31.699 43.0981C31.8631 42.8384 31.9485 42.5342 31.9554 42.1855H34.7342C34.7273 42.9648 34.5188 43.6587 34.1087 44.2671C33.6985 44.8687 33.1482 45.3438 32.4578 45.6924C31.7674 46.0342 30.9949 46.2051 30.1404 46.2051C29.2791 46.2051 28.5271 46.0615 27.8846 45.7744C27.2488 45.4873 26.719 45.0908 26.2952 44.585C25.8714 44.0723 25.5535 43.4775 25.3416 42.8008C25.1297 42.1172 25.0237 41.3857 25.0237 40.6064V40.3091C25.0237 39.5229 25.1297 38.7915 25.3416 38.1147C25.5535 37.4312 25.8714 36.8364 26.2952 36.3306C26.719 35.8179 27.2488 35.418 27.8846 35.1309C28.5203 34.8438 29.2654 34.7002 30.1199 34.7002C31.0291 34.7002 31.8255 34.8745 32.5091 35.2231C33.1995 35.5718 33.7395 36.0708 34.1292 36.7202C34.5257 37.3628 34.7273 38.125 34.7342 39.0068H31.9554C31.9485 38.6377 31.8699 38.3027 31.7195 38.002C31.576 37.7012 31.364 37.4619 31.0838 37.2842C30.8103 37.0996 30.472 37.0073 30.0686 37.0073C29.638 37.0073 29.2859 37.0996 29.0125 37.2842C28.739 37.4619 28.5271 37.708 28.3767 38.0225C28.2263 38.3301 28.1204 38.6821 28.0589 39.0786C28.0042 39.4683 27.9768 39.8784 27.9768 40.3091V40.6064C27.9768 41.0371 28.0042 41.4507 28.0589 41.8472C28.1136 42.2437 28.2161 42.5957 28.3665 42.9033C28.5237 43.2109 28.739 43.4536 29.0125 43.6313C29.2859 43.8091 29.6414 43.8979 30.0789 43.8979ZM39.1897 30.2397V46H36.2366V30.2397H39.1897ZM46.1828 34.9053L41.3635 40.4014L38.7795 43.0161L37.7029 40.8833L39.7537 38.2788L42.635 34.9053H46.1828ZM43.1169 46L39.8357 40.873L41.8762 39.0889L46.5212 46H43.1169ZM62.4049 37.1509V39.5503H54.612V37.1509H62.4049ZM55.5246 31.0703V46H52.4484V31.0703H55.5246ZM64.5993 31.0703V46H61.5334V31.0703H64.5993ZM71.9874 46.2051C71.1261 46.2051 70.3536 46.0684 69.67 45.7949C68.9864 45.5146 68.4054 45.1284 67.9269 44.6362C67.4552 44.144 67.0929 43.5732 66.84 42.9238C66.587 42.2676 66.4606 41.5703 66.4606 40.832V40.4219C66.4606 39.5811 66.5802 38.812 66.8195 38.1147C67.0587 37.4175 67.4005 36.8125 67.8448 36.2998C68.296 35.7871 68.8429 35.394 69.4855 35.1206C70.128 34.8403 70.8527 34.7002 71.6593 34.7002C72.4454 34.7002 73.1427 34.8301 73.7511 35.0898C74.3595 35.3496 74.8688 35.7188 75.2789 36.1973C75.6959 36.6758 76.0104 37.25 76.2223 37.9199C76.4342 38.583 76.5402 39.3213 76.5402 40.1348V41.3652H67.7218V39.3965H73.6383V39.1709C73.6383 38.7607 73.5631 38.395 73.4127 38.0737C73.2692 37.7456 73.0504 37.4858 72.7565 37.2944C72.4625 37.103 72.0865 37.0073 71.6285 37.0073C71.2389 37.0073 70.9039 37.0928 70.6236 37.2637C70.3434 37.4346 70.1144 37.6738 69.9366 37.9814C69.7657 38.2891 69.6359 38.6514 69.547 39.0684C69.465 39.4785 69.4239 39.9297 69.4239 40.4219V40.832C69.4239 41.2764 69.4855 41.6865 69.6085 42.0625C69.7384 42.4385 69.9195 42.7632 70.152 43.0366C70.3912 43.3101 70.6783 43.522 71.0133 43.6724C71.3551 43.8228 71.7413 43.8979 72.172 43.8979C72.7052 43.8979 73.2008 43.7954 73.6588 43.5903C74.1236 43.3784 74.5236 43.0605 74.8585 42.6367L76.2941 44.1953C76.0616 44.5303 75.7438 44.8516 75.3404 45.1592C74.944 45.4668 74.4654 45.7197 73.9049 45.918C73.3444 46.1094 72.7052 46.2051 71.9874 46.2051ZM80.9649 37.3252V46H78.0118V34.9053H80.7906L80.9649 37.3252ZM84.3077 34.8335L84.2564 37.5713C84.1129 37.5508 83.9386 37.5337 83.7335 37.52C83.5352 37.4995 83.3541 37.4893 83.19 37.4893C82.773 37.4893 82.4107 37.5439 82.1031 37.6533C81.8023 37.7559 81.5494 37.9097 81.3443 38.1147C81.1461 38.3198 80.9957 38.5693 80.8931 38.8633C80.7974 39.1572 80.7428 39.4922 80.7291 39.8682L80.1344 39.6836C80.1344 38.9658 80.2061 38.3062 80.3497 37.7046C80.4932 37.0962 80.7017 36.5664 80.9752 36.1152C81.2554 35.6641 81.5972 35.3154 82.0006 35.0693C82.4039 34.8232 82.8653 34.7002 83.3848 34.7002C83.5489 34.7002 83.7164 34.7139 83.8873 34.7412C84.0582 34.7617 84.1983 34.7925 84.3077 34.8335ZM90.3936 46.2051C89.5323 46.2051 88.7598 46.0684 88.0762 45.7949C87.3926 45.5146 86.8116 45.1284 86.333 44.6362C85.8614 44.144 85.4991 43.5732 85.2461 42.9238C84.9932 42.2676 84.8667 41.5703 84.8667 40.832V40.4219C84.8667 39.5811 84.9864 38.812 85.2256 38.1147C85.4649 37.4175 85.8067 36.8125 86.251 36.2998C86.7022 35.7871 87.2491 35.394 87.8916 35.1206C88.5342 34.8403 89.2588 34.7002 90.0655 34.7002C90.8516 34.7002 91.5489 34.8301 92.1573 35.0898C92.7657 35.3496 93.2749 35.7188 93.6851 36.1973C94.1021 36.6758 94.4165 37.25 94.6285 37.9199C94.8404 38.583 94.9463 39.3213 94.9463 40.1348V41.3652H86.128V39.3965H92.0445V39.1709C92.0445 38.7607 91.9693 38.395 91.8189 38.0737C91.6753 37.7456 91.4566 37.4858 91.1626 37.2944C90.8687 37.103 90.4927 37.0073 90.0347 37.0073C89.6451 37.0073 89.3101 37.0928 89.0298 37.2637C88.7495 37.4346 88.5205 37.6738 88.3428 37.9814C88.1719 38.2891 88.042 38.6514 87.9532 39.0684C87.8711 39.4785 87.8301 39.9297 87.8301 40.4219V40.832C87.8301 41.2764 87.8916 41.6865 88.0147 42.0625C88.1446 42.4385 88.3257 42.7632 88.5581 43.0366C88.7974 43.3101 89.0845 43.522 89.4195 43.6724C89.7613 43.8228 90.1475 43.8979 90.5782 43.8979C91.1114 43.8979 91.607 43.7954 92.065 43.5903C92.5298 43.3784 92.9297 43.0605 93.2647 42.6367L94.7002 44.1953C94.4678 44.5303 94.1499 44.8516 93.7466 45.1592C93.3501 45.4668 92.8716 45.7197 92.3111 45.918C91.7505 46.1094 91.1114 46.2051 90.3936 46.2051ZM106.872 34.9053V36.9971H100.412V34.9053H106.872ZM102.012 32.1675H104.965V42.6572C104.965 42.9785 105.006 43.2246 105.088 43.3955C105.177 43.5664 105.307 43.686 105.478 43.7544C105.648 43.8159 105.864 43.8467 106.123 43.8467C106.308 43.8467 106.472 43.8398 106.616 43.8262C106.766 43.8057 106.893 43.7852 106.995 43.7646L107.005 45.9385C106.752 46.0205 106.479 46.0854 106.185 46.1333C105.891 46.1812 105.566 46.2051 105.211 46.2051C104.561 46.2051 103.994 46.0991 103.509 45.8872C103.03 45.6685 102.661 45.3198 102.401 44.8413C102.142 44.3628 102.012 43.7339 102.012 42.9546V32.1675ZM107.605 40.5654V40.3501C107.605 39.5366 107.722 38.7881 107.954 38.1045C108.186 37.4141 108.525 36.8159 108.969 36.3101C109.413 35.8042 109.96 35.4111 110.61 35.1309C111.259 34.8438 112.004 34.7002 112.845 34.7002C113.686 34.7002 114.434 34.8438 115.091 35.1309C115.747 35.4111 116.297 35.8042 116.742 36.3101C117.193 36.8159 117.535 37.4141 117.767 38.1045C117.999 38.7881 118.116 39.5366 118.116 40.3501V40.5654C118.116 41.3721 117.999 42.1206 117.767 42.811C117.535 43.4946 117.193 44.0928 116.742 44.6055C116.297 45.1113 115.75 45.5044 115.101 45.7847C114.452 46.0649 113.706 46.2051 112.866 46.2051C112.025 46.2051 111.276 46.0649 110.62 45.7847C109.971 45.5044 109.42 45.1113 108.969 44.6055C108.525 44.0928 108.186 43.4946 107.954 42.811C107.722 42.1206 107.605 41.3721 107.605 40.5654ZM110.559 40.3501V40.5654C110.559 41.0303 110.6 41.4644 110.682 41.8677C110.764 42.271 110.893 42.6265 111.071 42.9341C111.256 43.2349 111.495 43.4707 111.789 43.6416C112.083 43.8125 112.442 43.8979 112.866 43.8979C113.276 43.8979 113.628 43.8125 113.922 43.6416C114.216 43.4707 114.452 43.2349 114.629 42.9341C114.807 42.6265 114.937 42.271 115.019 41.8677C115.108 41.4644 115.152 41.0303 115.152 40.5654V40.3501C115.152 39.8989 115.108 39.4751 115.019 39.0786C114.937 38.6753 114.804 38.3198 114.619 38.0122C114.441 37.6978 114.205 37.4517 113.912 37.2739C113.618 37.0962 113.262 37.0073 112.845 37.0073C112.428 37.0073 112.073 37.0962 111.779 37.2739C111.492 37.4517 111.256 37.6978 111.071 38.0122C110.893 38.3198 110.764 38.6753 110.682 39.0786C110.6 39.4751 110.559 39.8989 110.559 40.3501ZM134.943 43.6006V46H126.996V43.6006H134.943ZM128.001 31.0703V46H124.925V31.0703H128.001ZM133.907 37.1509V39.4888H126.996V37.1509H133.907ZM134.932 31.0703V33.48H126.996V31.0703H134.932ZM138.721 34.9053L140.557 38.2788L142.444 34.9053H145.592L142.454 40.3296L145.735 46H142.577L140.577 42.4316L138.578 46H135.42L138.701 40.3296L135.563 34.9053H138.721ZM149.77 37.0381V50.2656H146.817V34.9053H149.555L149.77 37.0381ZM156.794 40.3296V40.5449C156.794 41.3516 156.698 42.1001 156.507 42.7905C156.323 43.481 156.049 44.0825 155.687 44.5952C155.324 45.1011 154.873 45.4976 154.333 45.7847C153.8 46.0649 153.185 46.2051 152.488 46.2051C151.811 46.2051 151.223 46.0684 150.724 45.7949C150.225 45.5215 149.804 45.1387 149.463 44.6465C149.128 44.1475 148.858 43.5698 148.653 42.9136C148.448 42.2573 148.29 41.5532 148.181 40.8013V40.2373C148.29 39.4307 148.448 38.6924 148.653 38.0225C148.858 37.3457 149.128 36.7612 149.463 36.269C149.804 35.77 150.221 35.3838 150.714 35.1104C151.213 34.8369 151.797 34.7002 152.467 34.7002C153.171 34.7002 153.79 34.8335 154.323 35.1001C154.863 35.3667 155.314 35.7495 155.677 36.2485C156.046 36.7476 156.323 37.3423 156.507 38.0327C156.698 38.7231 156.794 39.4888 156.794 40.3296ZM153.831 40.5449V40.3296C153.831 39.8579 153.79 39.4238 153.708 39.0273C153.633 38.624 153.51 38.272 153.339 37.9712C153.175 37.6704 152.956 37.438 152.682 37.2739C152.416 37.103 152.091 37.0176 151.708 37.0176C151.305 37.0176 150.96 37.0825 150.673 37.2124C150.392 37.3423 150.163 37.5303 149.986 37.7764C149.808 38.0225 149.675 38.3164 149.586 38.6582C149.497 39 149.442 39.3862 149.422 39.8169V41.2422C149.456 41.748 149.552 42.2026 149.709 42.606C149.866 43.0024 150.109 43.3169 150.437 43.5493C150.765 43.7817 151.196 43.8979 151.729 43.8979C152.118 43.8979 152.447 43.8125 152.713 43.6416C152.98 43.4639 153.195 43.2212 153.359 42.9136C153.53 42.606 153.65 42.2505 153.718 41.8472C153.793 41.4438 153.831 41.0098 153.831 40.5449ZM161.537 30.25V46H158.573V30.25H161.537ZM163.296 40.5654V40.3501C163.296 39.5366 163.412 38.7881 163.644 38.1045C163.877 37.4141 164.215 36.8159 164.659 36.3101C165.104 35.8042 165.651 35.4111 166.3 35.1309C166.949 34.8438 167.695 34.7002 168.535 34.7002C169.376 34.7002 170.125 34.8438 170.781 35.1309C171.437 35.4111 171.987 35.8042 172.432 36.3101C172.883 36.8159 173.225 37.4141 173.457 38.1045C173.69 38.7881 173.806 39.5366 173.806 40.3501V40.5654C173.806 41.3721 173.69 42.1206 173.457 42.811C173.225 43.4946 172.883 44.0928 172.432 44.6055C171.987 45.1113 171.441 45.5044 170.791 45.7847C170.142 46.0649 169.397 46.2051 168.556 46.2051C167.715 46.2051 166.966 46.0649 166.31 45.7847C165.661 45.5044 165.111 45.1113 164.659 44.6055C164.215 44.0928 163.877 43.4946 163.644 42.811C163.412 42.1206 163.296 41.3721 163.296 40.5654ZM166.249 40.3501V40.5654C166.249 41.0303 166.29 41.4644 166.372 41.8677C166.454 42.271 166.584 42.6265 166.761 42.9341C166.946 43.2349 167.185 43.4707 167.479 43.6416C167.773 43.8125 168.132 43.8979 168.556 43.8979C168.966 43.8979 169.318 43.8125 169.612 43.6416C169.906 43.4707 170.142 43.2349 170.32 42.9341C170.497 42.6265 170.627 42.271 170.709 41.8677C170.798 41.4644 170.842 41.0303 170.842 40.5654V40.3501C170.842 39.8989 170.798 39.4751 170.709 39.0786C170.627 38.6753 170.494 38.3198 170.309 38.0122C170.132 37.6978 169.896 37.4517 169.602 37.2739C169.308 37.0962 168.952 37.0073 168.535 37.0073C168.118 37.0073 167.763 37.0962 167.469 37.2739C167.182 37.4517 166.946 37.6978 166.761 38.0122C166.584 38.3198 166.454 38.6753 166.372 39.0786C166.29 39.4751 166.249 39.8989 166.249 40.3501ZM178.364 37.3252V46H175.411V34.9053H178.19L178.364 37.3252ZM181.707 34.8335L181.655 37.5713C181.512 37.5508 181.338 37.5337 181.132 37.52C180.934 37.4995 180.753 37.4893 180.589 37.4893C180.172 37.4893 179.81 37.5439 179.502 37.6533C179.201 37.7559 178.948 37.9097 178.743 38.1147C178.545 38.3198 178.395 38.5693 178.292 38.8633C178.196 39.1572 178.142 39.4922 178.128 39.8682L177.533 39.6836C177.533 38.9658 177.605 38.3062 177.749 37.7046C177.892 37.0962 178.101 36.5664 178.374 36.1152C178.654 35.6641 178.996 35.3154 179.4 35.0693C179.803 34.8232 180.264 34.7002 180.784 34.7002C180.948 34.7002 181.115 34.7139 181.286 34.7412C181.457 34.7617 181.597 34.7925 181.707 34.8335ZM187.793 46.2051C186.931 46.2051 186.159 46.0684 185.475 45.7949C184.792 45.5146 184.211 45.1284 183.732 44.6362C183.26 44.144 182.898 43.5732 182.645 42.9238C182.392 42.2676 182.266 41.5703 182.266 40.832V40.4219C182.266 39.5811 182.385 38.812 182.625 38.1147C182.864 37.4175 183.206 36.8125 183.65 36.2998C184.101 35.7871 184.648 35.394 185.291 35.1206C185.933 34.8403 186.658 34.7002 187.464 34.7002C188.251 34.7002 188.948 34.8301 189.556 35.0898C190.165 35.3496 190.674 35.7188 191.084 36.1973C191.501 36.6758 191.816 37.25 192.027 37.9199C192.239 38.583 192.345 39.3213 192.345 40.1348V41.3652H183.527V39.3965H189.443V39.1709C189.443 38.7607 189.368 38.395 189.218 38.0737C189.074 37.7456 188.856 37.4858 188.562 37.2944C188.268 37.103 187.892 37.0073 187.434 37.0073C187.044 37.0073 186.709 37.0928 186.429 37.2637C186.149 37.4346 185.92 37.6738 185.742 37.9814C185.571 38.2891 185.441 38.6514 185.352 39.0684C185.27 39.4785 185.229 39.9297 185.229 40.4219V40.832C185.229 41.2764 185.291 41.6865 185.414 42.0625C185.544 42.4385 185.725 42.7632 185.957 43.0366C186.196 43.3101 186.483 43.522 186.818 43.6724C187.16 43.8228 187.546 43.8979 187.977 43.8979C188.51 43.8979 189.006 43.7954 189.464 43.5903C189.929 43.3784 190.329 43.0605 190.664 42.6367L192.099 44.1953C191.867 44.5303 191.549 44.8516 191.146 45.1592C190.749 45.4668 190.271 45.7197 189.71 45.918C189.15 46.1094 188.51 46.2051 187.793 46.2051Z" fill="url(#paint0_linear_108_13759)"/>
<path d="M0.121483 48.0508H145.795V49.0762H0.121483V48.0508ZM150.799 48.0508H192.879V49.0762H150.799V48.0508Z" fill="url(#paint1_linear_108_13759)"/>
<defs>
<linearGradient id="paint0_linear_108_13759" x1="96.5" y1="-6" x2="96.5" y2="54" gradientUnits="userSpaceOnUse">
<stop stop-color="#EB3030"/>
<stop offset="1" stop-color="#851B1B"/>
</linearGradient>
<linearGradient id="paint1_linear_108_13759" x1="96.5" y1="-6" x2="96.5" y2="54" gradientUnits="userSpaceOnUse">
<stop stop-color="#EB3030"/>
<stop offset="1" stop-color="#851B1B"/>
</linearGradient>
</defs>
</svg>
