<svg width="35" height="35" viewBox="0 0 35 35" fill="none" xmlns="http://www.w3.org/2000/svg">
<g clip-path="url(#clip0_14_8173)">
<path d="M17.5 35C27.165 35 35 27.165 35 17.5C35 7.83502 27.165 0 17.5 0C7.83502 0 0 7.83502 0 17.5C0 27.165 7.83502 35 17.5 35Z" fill="#F9F9F9"/>
<path d="M20.1182 25.068H14.8842C14.2276 25.0573 13.6013 24.7894 13.1401 24.3219C12.6788 23.8545 12.4192 23.2247 12.4172 22.568L11.5942 13H23.4822L22.6602 22.563C22.6552 23.2322 22.3846 23.8721 21.9079 24.3418C21.4312 24.8116 20.7875 25.0728 20.1182 25.068V25.068Z" stroke="url(#paint0_linear_14_8173)" stroke-miterlimit="10"/>
<path d="M15.4521 16.036V22.032" stroke="url(#paint1_linear_14_8173)" stroke-miterlimit="10" stroke-linecap="round"/>
<path d="M19.5513 16.036V22.032" stroke="url(#paint2_linear_14_8173)" stroke-miterlimit="10" stroke-linecap="round"/>
<path d="M12.5812 13C12.5504 12.6366 12.5915 12.2707 12.7022 11.9231C12.8129 11.5756 12.991 11.2533 13.2263 10.9747C13.4617 10.6961 13.7496 10.4666 14.0738 10.2993C14.3979 10.1321 14.7518 10.0304 15.1152 10H19.9602C20.6813 10.0786 21.3429 10.4368 21.8028 10.9977C22.2628 11.5586 22.4844 12.2775 22.4202 13H12.5812Z" stroke="url(#paint3_linear_14_8173)" stroke-miterlimit="10"/>
<path d="M10 13H25" stroke="url(#paint4_linear_14_8173)" stroke-miterlimit="10" stroke-linecap="round"/>
</g>
<defs>
<linearGradient id="paint0_linear_14_8173" x1="17.5382" y1="13" x2="17.5382" y2="25.0681" gradientUnits="userSpaceOnUse">
<stop stop-color="#EB3030"/>
<stop offset="1" stop-color="#851B1B"/>
</linearGradient>
<linearGradient id="paint1_linear_14_8173" x1="15.9521" y1="16.036" x2="15.9521" y2="22.032" gradientUnits="userSpaceOnUse">
<stop stop-color="#EB3030"/>
<stop offset="1" stop-color="#851B1B"/>
</linearGradient>
<linearGradient id="paint2_linear_14_8173" x1="20.0513" y1="16.036" x2="20.0513" y2="22.032" gradientUnits="userSpaceOnUse">
<stop stop-color="#EB3030"/>
<stop offset="1" stop-color="#851B1B"/>
</linearGradient>
<linearGradient id="paint3_linear_14_8173" x1="17.5012" y1="10" x2="17.5012" y2="13" gradientUnits="userSpaceOnUse">
<stop stop-color="#EB3030"/>
<stop offset="1" stop-color="#851B1B"/>
</linearGradient>
<linearGradient id="paint4_linear_14_8173" x1="17.5" y1="13" x2="17.5" y2="14" gradientUnits="userSpaceOnUse">
<stop stop-color="#EB3030"/>
<stop offset="1" stop-color="#851B1B"/>
</linearGradient>
<clipPath id="clip0_14_8173">
<rect width="35" height="35" fill="white"/>
</clipPath>
</defs>
</svg>
