<svg width="331" height="41" viewBox="0 0 331 41" fill="none" xmlns="http://www.w3.org/2000/svg">
<g clip-path="url(#clip0_30_12079)">
<rect y="8" width="331" height="14" rx="7" fill="#E5EBFC"/>
<path d="M15 30C23.2843 30 30 23.2843 30 15C30 6.71573 23.2843 0 15 0C6.71573 0 0 6.71573 0 15C0 23.2843 6.71573 30 15 30Z" fill="#E5EBFC"/>
<path d="M164 30C172.284 30 179 23.2843 179 15C179 6.71573 172.284 0 164 0C155.716 0 149 6.71573 149 15C149 23.2843 155.716 30 164 30Z" fill="#E5EBFC"/>
<path d="M316 30C324.284 30 331 23.2843 331 15C331 6.71573 324.284 0 316 0C307.716 0 301 6.71573 301 15C301 23.2843 307.716 30 316 30Z" fill="#E5EBFC"/>
<g filter="url(#filter0_d_30_12079)">
<mask id="path-5-inside-1_30_12079" fill="white">
<path fill-rule="evenodd" clip-rule="evenodd" d="M25.2501 19C23.65 23.0974 19.664 26 15 26C8.92487 26 4 21.0751 4 15C4 8.92487 8.92487 4 15 4C19.664 4 23.65 6.90264 25.2501 11H153.75C155.35 6.90264 159.336 4 164 4C168.664 4 172.65 6.90264 174.25 11H305.75C307.35 6.90264 311.336 4 316 4C322.075 4 327 8.92487 327 15C327 21.0751 322.075 26 316 26C311.336 26 307.35 23.0974 305.75 19H174.25C172.65 23.0974 168.664 26 164 26C159.336 26 155.35 23.0974 153.75 19H25.2501Z"/>
</mask>
<path fill-rule="evenodd" clip-rule="evenodd" d="M25.2501 19C23.65 23.0974 19.664 26 15 26C8.92487 26 4 21.0751 4 15C4 8.92487 8.92487 4 15 4C19.664 4 23.65 6.90264 25.2501 11H153.75C155.35 6.90264 159.336 4 164 4C168.664 4 172.65 6.90264 174.25 11H305.75C307.35 6.90264 311.336 4 316 4C322.075 4 327 8.92487 327 15C327 21.0751 322.075 26 316 26C311.336 26 307.35 23.0974 305.75 19H174.25C172.65 23.0974 168.664 26 164 26C159.336 26 155.35 23.0974 153.75 19H25.2501Z" fill="url(#paint0_linear_30_12079)"/>
<path d="M25.2501 19V17H23.8841L23.3871 18.2725L25.2501 19ZM25.2501 11L23.3871 11.7275L23.8841 13H25.2501V11ZM153.75 11V13H155.116L155.613 11.7275L153.75 11ZM174.25 11L172.387 11.7275L172.884 13H174.25V11ZM305.75 11V13H307.116L307.613 11.7275L305.75 11ZM305.75 19L307.613 18.2725L307.116 17H305.75V19ZM174.25 19V17H172.884L172.387 18.2725L174.25 19ZM153.75 19L155.613 18.2725L155.116 17H153.75V19ZM15 28C20.5151 28 25.2234 24.5664 27.1131 19.7275L23.3871 18.2725C22.0766 21.6283 18.8128 24 15 24V28ZM2 15C2 22.1797 7.8203 28 15 28V24C10.0294 24 6 19.9706 6 15H2ZM15 2C7.8203 2 2 7.8203 2 15H6C6 10.0294 10.0294 6 15 6V2ZM27.1131 10.2725C25.2234 5.43356 20.5151 2 15 2V6C18.8128 6 22.0766 8.37173 23.3871 11.7275L27.1131 10.2725ZM153.75 9H25.2501V13H153.75V9ZM164 2C158.485 2 153.777 5.43356 151.887 10.2725L155.613 11.7275C156.923 8.37173 160.187 6 164 6V2ZM176.113 10.2725C174.223 5.43356 169.515 2 164 2V6C167.813 6 171.077 8.37173 172.387 11.7275L176.113 10.2725ZM305.75 9H174.25V13H305.75V9ZM307.613 11.7275C308.923 8.37173 312.187 6 316 6V2C310.485 2 305.777 5.43355 303.887 10.2725L307.613 11.7275ZM316 6C320.971 6 325 10.0294 325 15H329C329 7.8203 323.18 2 316 2V6ZM325 15C325 19.9706 320.971 24 316 24V28C323.18 28 329 22.1797 329 15H325ZM316 24C312.187 24 308.923 21.6283 307.613 18.2725L303.887 19.7275C305.777 24.5664 310.485 28 316 28V24ZM174.25 21H305.75V17H174.25V21ZM164 28C169.515 28 174.223 24.5664 176.113 19.7275L172.387 18.2725C171.077 21.6283 167.813 24 164 24V28ZM151.887 19.7275C153.777 24.5664 158.485 28 164 28V24C160.187 24 156.923 21.6283 155.613 18.2725L151.887 19.7275ZM25.2501 21H153.75V17H25.2501V21Z" fill="white" mask="url(#path-5-inside-1_30_12079)"/>
</g>
</g>
<defs>
<filter id="filter0_d_30_12079" x="-2" y="1" width="335" height="34" filterUnits="userSpaceOnUse" color-interpolation-filters="sRGB">
<feFlood flood-opacity="0" result="BackgroundImageFix"/>
<feColorMatrix in="SourceAlpha" type="matrix" values="0 0 0 0 0 0 0 0 0 0 0 0 0 0 0 0 0 0 127 0" result="hardAlpha"/>
<feOffset dy="3"/>
<feGaussianBlur stdDeviation="3"/>
<feColorMatrix type="matrix" values="0 0 0 0 0 0 0 0 0 0 0 0 0 0 0 0 0 0 0.160784 0"/>
<feBlend mode="normal" in2="BackgroundImageFix" result="effect1_dropShadow_30_12079"/>
<feBlend mode="normal" in="SourceGraphic" in2="effect1_dropShadow_30_12079" result="shape"/>
</filter>
<linearGradient id="paint0_linear_30_12079" x1="4" y1="15" x2="327" y2="15" gradientUnits="userSpaceOnUse">
<stop stop-color="#EB3030"/>
<stop offset="1" stop-color="#851B1B"/>
</linearGradient>
<clipPath id="clip0_30_12079">
<rect width="331" height="41" fill="white"/>
</clipPath>
</defs>
</svg>
