<svg width="74" height="74" viewBox="0 0 74 74" fill="none" xmlns="http://www.w3.org/2000/svg">
<g filter="url(#filter0_d_39_10270)">
<rect x="7" y="3" width="60" height="60" rx="30" fill="url(#paint0_linear_39_10270)" shape-rendering="crispEdges"/>
<path d="M38.0625 21.8438C38.0625 21.4211 37.8946 21.0157 37.5957 20.7168C37.2968 20.4179 36.8914 20.25 36.4688 20.25C36.0461 20.25 35.6407 20.4179 35.3418 20.7168C35.0429 21.0157 34.875 21.4211 34.875 21.8438V30.875H25.8438C25.4211 30.875 25.0157 31.0429 24.7168 31.3418C24.4179 31.6407 24.25 32.0461 24.25 32.4688C24.25 32.8914 24.4179 33.2968 24.7168 33.5957C25.0157 33.8946 25.4211 34.0625 25.8438 34.0625H34.875V43.0938C34.875 43.5164 35.0429 43.9218 35.3418 44.2207C35.6407 44.5196 36.0461 44.6875 36.4688 44.6875C36.8914 44.6875 37.2968 44.5196 37.5957 44.2207C37.8946 43.9218 38.0625 43.5164 38.0625 43.0938V34.0625H47.0938C47.5164 34.0625 47.9218 33.8946 48.2207 33.5957C48.5196 33.2968 48.6875 32.8914 48.6875 32.4688C48.6875 32.0461 48.5196 31.6407 48.2207 31.3418C47.9218 31.0429 47.5164 30.875 47.0938 30.875H38.0625V21.8438Z" fill="white"/>
</g>
<defs>
<filter id="filter0_d_39_10270" x="0.9" y="0.9" width="72.2" height="72.2" filterUnits="userSpaceOnUse" color-interpolation-filters="sRGB">
<feFlood flood-opacity="0" result="BackgroundImageFix"/>
<feColorMatrix in="SourceAlpha" type="matrix" values="0 0 0 0 0 0 0 0 0 0 0 0 0 0 0 0 0 0 127 0" result="hardAlpha"/>
<feOffset dy="4"/>
<feGaussianBlur stdDeviation="3.05"/>
<feComposite in2="hardAlpha" operator="out"/>
<feColorMatrix type="matrix" values="0 0 0 0 0.14902 0 0 0 0 0.211765 0 0 0 0 0.454902 0 0 0 0.15 0"/>
<feBlend mode="normal" in2="BackgroundImageFix" result="effect1_dropShadow_39_10270"/>
<feBlend mode="normal" in="SourceGraphic" in2="effect1_dropShadow_39_10270" result="shape"/>
</filter>
<linearGradient id="paint0_linear_39_10270" x1="37" y1="3" x2="37" y2="63" gradientUnits="userSpaceOnUse">
<stop stop-color="#EB3030"/>
<stop offset="1" stop-color="#851B1B"/>
</linearGradient>
</defs>
</svg>
