<svg width="23" height="22" viewBox="0 0 23 22" fill="none" xmlns="http://www.w3.org/2000/svg">
<path d="M1.5 17C1.5 15.46 1.5 14.69 1.847 14.124C2.041 13.807 2.307 13.541 2.624 13.347C3.189 13 3.96 13 5.5 13C7.04 13 7.81 13 8.376 13.347C8.693 13.541 8.959 13.807 9.153 14.124C9.5 14.689 9.5 15.46 9.5 17C9.5 18.54 9.5 19.31 9.153 19.877C8.959 20.193 8.693 20.459 8.376 20.653C7.811 21 7.04 21 5.5 21C3.96 21 3.19 21 2.624 20.653C2.30735 20.4593 2.04108 20.1934 1.847 19.877C1.5 19.31 1.5 18.54 1.5 17ZM13.5 17C13.5 15.46 13.5 14.69 13.847 14.124C14.041 13.807 14.307 13.541 14.624 13.347C15.189 13 15.96 13 17.5 13C19.04 13 19.81 13 20.377 13.347C20.693 13.541 20.959 13.807 21.153 14.124C21.5 14.689 21.5 15.46 21.5 17C21.5 18.54 21.5 19.31 21.153 19.877C20.9589 20.1931 20.6931 20.4589 20.377 20.653C19.81 21 19.04 21 17.5 21C15.96 21 15.19 21 14.624 20.653C14.3073 20.4593 14.0411 20.1934 13.847 19.877C13.5 19.31 13.5 18.54 13.5 17ZM1.5 5C1.5 3.46 1.5 2.69 1.847 2.124C2.041 1.807 2.307 1.541 2.624 1.347C3.189 1 3.96 1 5.5 1C7.04 1 7.81 1 8.376 1.347C8.693 1.541 8.959 1.807 9.153 2.124C9.5 2.689 9.5 3.46 9.5 5C9.5 6.54 9.5 7.31 9.153 7.876C8.959 8.193 8.693 8.459 8.376 8.653C7.811 9 7.04 9 5.5 9C3.96 9 3.19 9 2.624 8.653C2.30724 8.45904 2.04096 8.19277 1.847 7.876C1.5 7.311 1.5 6.54 1.5 5ZM13.5 5C13.5 3.46 13.5 2.69 13.847 2.124C14.041 1.807 14.307 1.541 14.624 1.347C15.189 1 15.96 1 17.5 1C19.04 1 19.81 1 20.377 1.347C20.693 1.541 20.959 1.807 21.153 2.124C21.5 2.689 21.5 3.46 21.5 5C21.5 6.54 21.5 7.31 21.153 7.876C20.959 8.193 20.693 8.459 20.377 8.653C19.81 9 19.04 9 17.5 9C15.96 9 15.19 9 14.624 8.653C14.3072 8.45904 14.041 8.19277 13.847 7.876C13.5 7.311 13.5 6.54 13.5 5Z" stroke="black" stroke-width="1.5" stroke-linecap="round" stroke-linejoin="round"/>
</svg>
