<svg width="68" height="26" viewBox="0 0 68 26" fill="none" xmlns="http://www.w3.org/2000/svg">
<path d="M24.8672 8.46875H27.8848C28.5332 8.46875 29.0859 8.56641 29.543 8.76172C30 8.95703 30.3496 9.24609 30.5918 9.62891C30.8379 10.0078 30.9609 10.4766 30.9609 11.0352C30.9609 11.4609 30.8828 11.8359 30.7266 12.1602C30.5703 12.4844 30.3496 12.7578 30.0645 12.9805C29.7793 13.1992 29.4395 13.3691 29.0449 13.4902L28.5996 13.707H25.8867L25.875 12.541H27.9082C28.2598 12.541 28.5527 12.4785 28.7871 12.3535C29.0215 12.2285 29.1973 12.0586 29.3145 11.8438C29.4355 11.625 29.4961 11.3789 29.4961 11.1055C29.4961 10.8086 29.4375 10.5508 29.3203 10.332C29.207 10.1094 29.0312 9.93945 28.793 9.82227C28.5547 9.70117 28.252 9.64062 27.8848 9.64062H26.3379V17H24.8672V8.46875ZM29.7363 17L27.7324 13.168L29.2734 13.1621L31.3066 16.9238V17H29.7363ZM35.0801 17.1172C34.6113 17.1172 34.1875 17.041 33.8086 16.8887C33.4336 16.7324 33.1133 16.5156 32.8477 16.2383C32.5859 15.9609 32.3848 15.6348 32.2441 15.2598C32.1035 14.8848 32.0332 14.4805 32.0332 14.0469V13.8125C32.0332 13.3164 32.1055 12.8672 32.25 12.4648C32.3945 12.0625 32.5957 11.7188 32.8535 11.4336C33.1113 11.1445 33.416 10.9238 33.7676 10.7715C34.1191 10.6191 34.5 10.543 34.9102 10.543C35.3633 10.543 35.7598 10.6191 36.0996 10.7715C36.4395 10.9238 36.7207 11.1387 36.9434 11.416C37.1699 11.6895 37.3379 12.0156 37.4473 12.3945C37.5605 12.7734 37.6172 13.1914 37.6172 13.6484V14.252H32.7188V13.2383H36.2227V13.127C36.2148 12.873 36.1641 12.6348 36.0703 12.4121C35.9805 12.1895 35.8418 12.0098 35.6543 11.873C35.4668 11.7363 35.2168 11.668 34.9043 11.668C34.6699 11.668 34.4609 11.7188 34.2773 11.8203C34.0977 11.918 33.9473 12.0605 33.8262 12.248C33.7051 12.4355 33.6113 12.6621 33.5449 12.9277C33.4824 13.1895 33.4512 13.4844 33.4512 13.8125V14.0469C33.4512 14.3242 33.4883 14.582 33.5625 14.8203C33.6406 15.0547 33.7539 15.2598 33.9023 15.4355C34.0508 15.6113 34.2305 15.75 34.4414 15.8516C34.6523 15.9492 34.8926 15.998 35.1621 15.998C35.502 15.998 35.8047 15.9297 36.0703 15.793C36.3359 15.6562 36.5664 15.4629 36.7617 15.2129L37.5059 15.9336C37.3691 16.1328 37.1914 16.3242 36.9727 16.5078C36.7539 16.6875 36.4863 16.834 36.1699 16.9473C35.8574 17.0605 35.4941 17.1172 35.0801 17.1172ZM40.1309 11.9492V17H38.7188V10.6602H40.0488L40.1309 11.9492ZM39.9023 13.5957L39.4219 13.5898C39.4219 13.1523 39.4766 12.748 39.5859 12.377C39.6953 12.0059 39.8555 11.6836 40.0664 11.4102C40.2773 11.1328 40.5391 10.9199 40.8516 10.7715C41.168 10.6191 41.5332 10.543 41.9473 10.543C42.2363 10.543 42.5 10.5859 42.7383 10.6719C42.9805 10.7539 43.1895 10.8848 43.3652 11.0645C43.5449 11.2441 43.6816 11.4746 43.7754 11.7559C43.873 12.0371 43.9219 12.377 43.9219 12.7754V17H42.5098V12.8984C42.5098 12.5898 42.4629 12.3477 42.3691 12.1719C42.2793 11.9961 42.1484 11.8711 41.9766 11.7969C41.8086 11.7188 41.6074 11.6797 41.373 11.6797C41.1074 11.6797 40.8809 11.7305 40.6934 11.832C40.5098 11.9336 40.3594 12.0723 40.2422 12.248C40.125 12.4238 40.0391 12.627 39.9844 12.8574C39.9297 13.0879 39.9023 13.334 39.9023 13.5957ZM43.834 13.2207L43.1719 13.3672C43.1719 12.9844 43.2246 12.623 43.3301 12.2832C43.4395 11.9395 43.5977 11.6387 43.8047 11.3809C44.0156 11.1191 44.2754 10.9141 44.584 10.7656C44.8926 10.6172 45.2461 10.543 45.6445 10.543C45.9688 10.543 46.2578 10.5879 46.5117 10.6777C46.7695 10.7637 46.9883 10.9004 47.168 11.0879C47.3477 11.2754 47.4844 11.5195 47.5781 11.8203C47.6719 12.1172 47.7188 12.4766 47.7188 12.8984V17H46.3008V12.8926C46.3008 12.5723 46.2539 12.3242 46.1602 12.1484C46.0703 11.9727 45.9414 11.8516 45.7734 11.7852C45.6055 11.7148 45.4043 11.6797 45.1699 11.6797C44.9512 11.6797 44.7578 11.7207 44.5898 11.8027C44.4258 11.8809 44.2871 11.9922 44.1738 12.1367C44.0605 12.2773 43.9746 12.4395 43.916 12.623C43.8613 12.8066 43.834 13.0059 43.834 13.2207ZM48.9023 13.9004V13.7656C48.9023 13.3086 48.9688 12.8848 49.1016 12.4941C49.2344 12.0996 49.4258 11.7578 49.6758 11.4688C49.9297 11.1758 50.2383 10.9492 50.6016 10.7891C50.9688 10.625 51.3828 10.543 51.8438 10.543C52.3086 10.543 52.7227 10.625 53.0859 10.7891C53.4531 10.9492 53.7637 11.1758 54.0176 11.4688C54.2715 11.7578 54.4648 12.0996 54.5977 12.4941C54.7305 12.8848 54.7969 13.3086 54.7969 13.7656V13.9004C54.7969 14.3574 54.7305 14.7812 54.5977 15.1719C54.4648 15.5625 54.2715 15.9043 54.0176 16.1973C53.7637 16.4863 53.4551 16.7129 53.0918 16.877C52.7285 17.0371 52.3164 17.1172 51.8555 17.1172C51.3906 17.1172 50.9746 17.0371 50.6074 16.877C50.2441 16.7129 49.9355 16.4863 49.6816 16.1973C49.4277 15.9043 49.2344 15.5625 49.1016 15.1719C48.9688 14.7812 48.9023 14.3574 48.9023 13.9004ZM50.3145 13.7656V13.9004C50.3145 14.1855 50.3438 14.4551 50.4023 14.709C50.4609 14.9629 50.5527 15.1855 50.6777 15.377C50.8027 15.5684 50.9629 15.7188 51.1582 15.8281C51.3535 15.9375 51.5859 15.9922 51.8555 15.9922C52.1172 15.9922 52.3438 15.9375 52.5352 15.8281C52.7305 15.7188 52.8906 15.5684 53.0156 15.377C53.1406 15.1855 53.2324 14.9629 53.291 14.709C53.3535 14.4551 53.3848 14.1855 53.3848 13.9004V13.7656C53.3848 13.4844 53.3535 13.2188 53.291 12.9688C53.2324 12.7148 53.1387 12.4902 53.0098 12.2949C52.8848 12.0996 52.7246 11.9473 52.5293 11.8379C52.3379 11.7246 52.1094 11.668 51.8438 11.668C51.5781 11.668 51.3477 11.7246 51.1523 11.8379C50.9609 11.9473 50.8027 12.0996 50.6777 12.2949C50.5527 12.4902 50.4609 12.7148 50.4023 12.9688C50.3438 13.2188 50.3145 13.4844 50.3145 13.7656ZM57.9492 15.8809L59.502 10.6602H60.9668L58.7637 17H57.8496L57.9492 15.8809ZM56.7598 10.6602L58.3418 15.9043L58.418 17H57.5039L55.2891 10.6602H56.7598ZM64.5527 17.1172C64.084 17.1172 63.6602 17.041 63.2812 16.8887C62.9062 16.7324 62.5859 16.5156 62.3203 16.2383C62.0586 15.9609 61.8574 15.6348 61.7168 15.2598C61.5762 14.8848 61.5059 14.4805 61.5059 14.0469V13.8125C61.5059 13.3164 61.5781 12.8672 61.7227 12.4648C61.8672 12.0625 62.0684 11.7188 62.3262 11.4336C62.584 11.1445 62.8887 10.9238 63.2402 10.7715C63.5918 10.6191 63.9727 10.543 64.3828 10.543C64.8359 10.543 65.2324 10.6191 65.5723 10.7715C65.9121 10.9238 66.1934 11.1387 66.416 11.416C66.6426 11.6895 66.8105 12.0156 66.9199 12.3945C67.0332 12.7734 67.0898 13.1914 67.0898 13.6484V14.252H62.1914V13.2383H65.6953V13.127C65.6875 12.873 65.6367 12.6348 65.543 12.4121C65.4531 12.1895 65.3145 12.0098 65.127 11.873C64.9395 11.7363 64.6895 11.668 64.377 11.668C64.1426 11.668 63.9336 11.7188 63.75 11.8203C63.5703 11.918 63.4199 12.0605 63.2988 12.248C63.1777 12.4355 63.084 12.6621 63.0176 12.9277C62.9551 13.1895 62.9238 13.4844 62.9238 13.8125V14.0469C62.9238 14.3242 62.9609 14.582 63.0352 14.8203C63.1133 15.0547 63.2266 15.2598 63.375 15.4355C63.5234 15.6113 63.7031 15.75 63.9141 15.8516C64.125 15.9492 64.3652 15.998 64.6348 15.998C64.9746 15.998 65.2773 15.9297 65.543 15.793C65.8086 15.6562 66.0391 15.4629 66.2344 15.2129L66.9785 15.9336C66.8418 16.1328 66.6641 16.3242 66.4453 16.5078C66.2266 16.6875 65.959 16.834 65.6426 16.9473C65.3301 17.0605 64.9668 17.1172 64.5527 17.1172Z" fill="black"/>
<path d="M11.1178 20.068H5.88375C5.2271 20.0573 4.60086 19.7894 4.13957 19.3219C3.67828 18.8545 3.41876 18.2247 3.41675 17.568L2.59375 8H14.4818L13.6597 17.563C13.6547 18.2322 13.3841 18.8721 12.9074 19.3418C12.4307 19.8116 11.787 20.0728 11.1178 20.068V20.068Z" stroke="url(#paint0_linear_108_13690)" stroke-miterlimit="10"/>
<path d="M6.45166 11.036V17.032" stroke="url(#paint1_linear_108_13690)" stroke-miterlimit="10" stroke-linecap="round"/>
<path d="M10.5508 11.036V17.032" stroke="url(#paint2_linear_108_13690)" stroke-miterlimit="10" stroke-linecap="round"/>
<path d="M3.58123 8C3.55039 7.63659 3.59149 7.27066 3.70219 6.92314C3.81288 6.57562 3.99099 6.25334 4.22634 5.97471C4.46168 5.69609 4.74965 5.46658 5.07376 5.29934C5.39787 5.13209 5.75177 5.03037 6.11523 5H10.9602C11.6813 5.07856 12.3429 5.43676 12.8028 5.99766C13.2628 6.55857 13.4844 7.27747 13.4202 8H3.58123Z" stroke="url(#paint3_linear_108_13690)" stroke-miterlimit="10"/>
<path d="M1 8H16" stroke="url(#paint4_linear_108_13690)" stroke-miterlimit="10" stroke-linecap="round"/>
<defs>
<linearGradient id="paint0_linear_108_13690" x1="8.53775" y1="8" x2="8.53775" y2="20.0681" gradientUnits="userSpaceOnUse">
<stop stop-color="#EB3030"/>
<stop offset="1" stop-color="#851B1B"/>
</linearGradient>
<linearGradient id="paint1_linear_108_13690" x1="6.95166" y1="11.036" x2="6.95166" y2="17.032" gradientUnits="userSpaceOnUse">
<stop stop-color="#EB3030"/>
<stop offset="1" stop-color="#851B1B"/>
</linearGradient>
<linearGradient id="paint2_linear_108_13690" x1="11.0508" y1="11.036" x2="11.0508" y2="17.032" gradientUnits="userSpaceOnUse">
<stop stop-color="#EB3030"/>
<stop offset="1" stop-color="#851B1B"/>
</linearGradient>
<linearGradient id="paint3_linear_108_13690" x1="8.5012" y1="5" x2="8.5012" y2="8" gradientUnits="userSpaceOnUse">
<stop stop-color="#EB3030"/>
<stop offset="1" stop-color="#851B1B"/>
</linearGradient>
<linearGradient id="paint4_linear_108_13690" x1="8.5" y1="8" x2="8.5" y2="9" gradientUnits="userSpaceOnUse">
<stop stop-color="#EB3030"/>
<stop offset="1" stop-color="#851B1B"/>
</linearGradient>
</defs>
</svg>
