<svg width="22" height="22" viewBox="0 0 22 22" fill="none" xmlns="http://www.w3.org/2000/svg">
<path d="M14.0001 7.99997L8.00009 14M14.0001 14H13.9901M8.01009 7.99997H8.00009M6.69209 18.616C7.28209 18.616 7.57809 18.616 7.84709 18.716C7.88509 18.73 7.92209 18.7453 7.95809 18.762C8.21909 18.882 8.42809 19.09 8.84609 19.508C9.80809 20.47 10.2891 20.951 10.8801 20.996C10.9601 21.002 11.0401 21.002 11.1201 20.996C11.7111 20.951 12.1921 20.47 13.1541 19.508C13.5721 19.09 13.7811 18.882 14.0421 18.762C14.0781 18.7453 14.1148 18.73 14.1521 18.716C14.4221 18.616 14.7171 18.616 15.3081 18.616H15.4181C16.9251 18.616 17.6791 18.616 18.1481 18.148C18.6171 17.68 18.6161 16.925 18.6161 15.418V15.308C18.6161 14.718 18.6161 14.422 18.7161 14.153C18.7301 14.115 18.7454 14.078 18.7621 14.042C18.8821 13.781 19.0901 13.572 19.5081 13.154C20.4701 12.192 20.9511 11.711 20.9961 11.12C21.0021 11.04 21.0021 10.96 20.9961 10.88C20.9511 10.289 20.4701 9.80797 19.5081 8.84597C19.0901 8.42797 18.8821 8.21897 18.7621 7.95797L18.7161 7.84797C18.6161 7.57797 18.6161 7.28297 18.6161 6.69197V6.58197C18.6161 5.07497 18.6161 4.32097 18.1481 3.85197C17.6801 3.38297 16.9251 3.38397 15.4181 3.38397H15.3081C14.7181 3.38397 14.4221 3.38397 14.1531 3.28397L14.0421 3.23797C13.7811 3.11797 13.5721 2.90997 13.1541 2.49197C12.1921 1.52997 11.7111 1.04897 11.1201 1.00397C11.0402 0.999165 10.96 0.999165 10.8801 1.00397C10.2891 1.04897 9.80809 1.52997 8.84609 2.49197C8.42809 2.90997 8.21909 3.11897 7.95809 3.23797L7.84809 3.28397C7.57809 3.38397 7.28309 3.38397 6.69209 3.38397H6.58209C5.07509 3.38397 4.32109 3.38397 3.85209 3.85197C3.38309 4.31997 3.38409 5.07497 3.38409 6.58197V6.69197C3.38409 7.28197 3.38409 7.57797 3.28409 7.84697C3.26942 7.88497 3.25409 7.92197 3.23809 7.95797C3.11809 8.21897 2.91009 8.42797 2.49209 8.84597C1.53009 9.80797 1.04909 10.289 1.00409 10.88C0.999287 10.9599 0.999287 11.04 1.00409 11.12C1.04909 11.711 1.53009 12.192 2.49209 13.154C2.91009 13.572 3.11909 13.781 3.23809 14.042C3.25476 14.078 3.27009 14.1146 3.28409 14.152C3.38409 14.422 3.38409 14.717 3.38409 15.308V15.418C3.38409 16.925 3.38409 17.679 3.85209 18.148C4.32009 18.617 5.07509 18.616 6.58209 18.616H6.69209Z" stroke="black" stroke-width="1.5" stroke-linecap="round" stroke-linejoin="round"/>
</svg>
