<svg width="107" height="58" viewBox="0 0 107 58" fill="none" xmlns="http://www.w3.org/2000/svg">
<path fill-rule="evenodd" clip-rule="evenodd" d="M46.402 7.48691C51.1256 7.0763 55.8759 7.0763 60.5995 7.48691L62.8645 7.68491C63.9175 7.7766 64.9091 8.22004 65.6794 8.94384C66.4497 9.66763 66.954 10.6296 67.111 11.6749C67.7913 16.1995 67.7913 20.8003 67.111 25.3249C67.051 25.7209 66.943 26.1004 66.793 26.4559C66.694 26.6914 66.388 26.7274 66.214 26.5384L59.5825 19.2424C59.4359 19.0811 59.2455 18.9659 59.0346 18.9108C58.8237 18.8557 58.6013 18.863 58.3945 18.9319L54.598 20.1979L49.0915 14.0029C48.9897 13.8883 48.8655 13.7957 48.7265 13.7309C48.5876 13.666 48.4369 13.6303 48.2836 13.6258C48.1304 13.6213 47.9778 13.6481 47.8353 13.7047C47.6928 13.7614 47.5634 13.8465 47.455 13.9549L40.084 21.3259C40.0339 21.3774 39.9699 21.4131 39.8998 21.4288C39.8298 21.4444 39.7566 21.4392 39.6894 21.4139C39.6222 21.3886 39.5639 21.3442 39.5215 21.2862C39.4792 21.2282 39.4547 21.1591 39.451 21.0874C39.2736 17.9427 39.4204 14.7881 39.889 11.6734C40.046 10.6281 40.5503 9.66613 41.3206 8.94234C42.091 8.21854 43.0825 7.7751 44.1355 7.68341L46.402 7.48691ZM56.5 13.9999C56.5 13.4032 56.7371 12.8309 57.159 12.4089C57.581 11.987 58.1533 11.7499 58.75 11.7499C59.3468 11.7499 59.9191 11.987 60.341 12.4089C60.763 12.8309 61 13.4032 61 13.9999C61 14.5967 60.763 15.1689 60.341 15.5909C59.9191 16.0129 59.3468 16.2499 58.75 16.2499C58.1533 16.2499 57.581 16.0129 57.159 15.5909C56.7371 15.1689 56.5 14.5967 56.5 13.9999Z" fill="url(#paint0_linear_38_9866)"/>
<path d="M39.9416 24.6499C39.901 24.6908 39.8704 24.7405 39.8522 24.7951C39.834 24.8497 39.8286 24.9079 39.8366 24.9649L39.8891 25.3249C40.0461 26.3702 40.5504 27.3322 41.3207 28.056C42.0911 28.7798 43.0826 29.2232 44.1356 29.3149L46.4006 29.5114C51.1256 29.9224 55.8746 29.9224 60.5996 29.5114L62.8646 29.3149C63.4858 29.2612 64.09 29.0842 64.6421 28.7944C64.8476 28.6879 64.8821 28.4164 64.7261 28.2454L58.5761 21.4804C58.5273 21.4261 58.4636 21.3872 58.393 21.3686C58.3224 21.3499 58.2479 21.3523 58.1786 21.3754L54.6056 22.5664C54.3967 22.6362 54.1719 22.6431 53.9592 22.5863C53.7464 22.5295 53.5549 22.4115 53.4086 22.2469L48.4661 16.6864C48.4321 16.6482 48.3906 16.6174 48.3442 16.5958C48.2978 16.5742 48.2475 16.5623 48.1963 16.5609C48.1452 16.5595 48.0943 16.5686 48.0468 16.5876C47.9993 16.6066 47.9562 16.6351 47.9201 16.6714L39.9416 24.6499Z" fill="url(#paint1_linear_38_9866)"/>
<path d="M8.85102 43.7246L6.0268 51.5H4.8725L8.12445 42.9688H8.8686L8.85102 43.7246ZM11.2182 51.5L8.38813 43.7246L8.37055 42.9688H9.11469L12.3784 51.5H11.2182ZM11.0717 48.3418V49.2676H6.27875V48.3418H11.0717ZM17.033 50.2695V42.5H18.1228V51.5H17.1267L17.033 50.2695ZM12.7673 48.4004V48.2773C12.7673 47.793 12.8259 47.3535 12.9431 46.959C13.0642 46.5605 13.2341 46.2188 13.4529 45.9336C13.6755 45.6484 13.9392 45.4297 14.2439 45.2773C14.5525 45.1211 14.8963 45.043 15.2752 45.043C15.6736 45.043 16.0213 45.1133 16.3181 45.2539C16.6189 45.3906 16.8728 45.5918 17.0798 45.8574C17.2908 46.1191 17.4568 46.4355 17.5779 46.8066C17.699 47.1777 17.783 47.5977 17.8298 48.0664V48.6055C17.7869 49.0703 17.7029 49.4883 17.5779 49.8594C17.4568 50.2305 17.2908 50.5469 17.0798 50.8086C16.8728 51.0703 16.6189 51.2715 16.3181 51.4121C16.0173 51.5488 15.6658 51.6172 15.2634 51.6172C14.8923 51.6172 14.5525 51.5371 14.2439 51.377C13.9392 51.2168 13.6755 50.9922 13.4529 50.7031C13.2341 50.4141 13.0642 50.0742 12.9431 49.6836C12.8259 49.2891 12.7673 48.8613 12.7673 48.4004ZM13.8572 48.2773V48.4004C13.8572 48.7168 13.8884 49.0137 13.9509 49.291C14.0173 49.5684 14.1189 49.8125 14.2556 50.0234C14.3923 50.2344 14.5662 50.4004 14.7771 50.5215C14.988 50.6387 15.24 50.6973 15.533 50.6973C15.8923 50.6973 16.1873 50.6211 16.4177 50.4688C16.6521 50.3164 16.8396 50.1152 16.9802 49.8652C17.1209 49.6152 17.2302 49.3438 17.3084 49.0508V47.6387C17.2615 47.4238 17.1931 47.2168 17.1033 47.0176C17.0173 46.8145 16.9041 46.6348 16.7634 46.4785C16.6267 46.3184 16.4568 46.1914 16.2537 46.0977C16.0545 46.0039 15.8181 45.957 15.5447 45.957C15.2478 45.957 14.992 46.0195 14.7771 46.1445C14.5662 46.2656 14.3923 46.4336 14.2556 46.6484C14.1189 46.8594 14.0173 47.1055 13.9509 47.3867C13.8884 47.6641 13.8572 47.9609 13.8572 48.2773ZM23.4864 50.2695V42.5H24.5763V51.5H23.5802L23.4864 50.2695ZM19.2208 48.4004V48.2773C19.2208 47.793 19.2794 47.3535 19.3966 46.959C19.5177 46.5605 19.6876 46.2188 19.9063 45.9336C20.129 45.6484 20.3927 45.4297 20.6973 45.2773C21.0059 45.1211 21.3497 45.043 21.7286 45.043C22.127 45.043 22.4747 45.1133 22.7716 45.2539C23.0723 45.3906 23.3263 45.5918 23.5333 45.8574C23.7442 46.1191 23.9102 46.4355 24.0313 46.8066C24.1524 47.1777 24.2364 47.5977 24.2833 48.0664V48.6055C24.2403 49.0703 24.1563 49.4883 24.0313 49.8594C23.9102 50.2305 23.7442 50.5469 23.5333 50.8086C23.3263 51.0703 23.0723 51.2715 22.7716 51.4121C22.4708 51.5488 22.1192 51.6172 21.7169 51.6172C21.3458 51.6172 21.0059 51.5371 20.6973 51.377C20.3927 51.2168 20.129 50.9922 19.9063 50.7031C19.6876 50.4141 19.5177 50.0742 19.3966 49.6836C19.2794 49.2891 19.2208 48.8613 19.2208 48.4004ZM20.3106 48.2773V48.4004C20.3106 48.7168 20.3419 49.0137 20.4044 49.291C20.4708 49.5684 20.5723 49.8125 20.7091 50.0234C20.8458 50.2344 21.0196 50.4004 21.2305 50.5215C21.4415 50.6387 21.6934 50.6973 21.9864 50.6973C22.3458 50.6973 22.6407 50.6211 22.8712 50.4688C23.1055 50.3164 23.293 50.1152 23.4337 49.8652C23.5743 49.6152 23.6837 49.3438 23.7618 49.0508V47.6387C23.7149 47.4238 23.6466 47.2168 23.5567 47.0176C23.4708 46.8145 23.3575 46.6348 23.2169 46.4785C23.0802 46.3184 22.9102 46.1914 22.7071 46.0977C22.5079 46.0039 22.2716 45.957 21.9981 45.957C21.7013 45.957 21.4454 46.0195 21.2305 46.1445C21.0196 46.2656 20.8458 46.4336 20.7091 46.6484C20.5723 46.8594 20.4708 47.1055 20.4044 47.3867C20.3419 47.6641 20.3106 47.9609 20.3106 48.2773ZM31.9109 48.1543H29.6316V47.2344H31.9109C32.3523 47.2344 32.7097 47.1641 32.9831 47.0234C33.2566 46.8828 33.4558 46.6875 33.5808 46.4375C33.7097 46.1875 33.7741 45.9023 33.7741 45.582C33.7741 45.2891 33.7097 45.0137 33.5808 44.7559C33.4558 44.498 33.2566 44.291 32.9831 44.1348C32.7097 43.9746 32.3523 43.8945 31.9109 43.8945H29.8952V51.5H28.7644V42.9688H31.9109C32.5554 42.9688 33.1003 43.0801 33.5456 43.3027C33.9909 43.5254 34.3288 43.834 34.5593 44.2285C34.7898 44.6191 34.905 45.0664 34.905 45.5703C34.905 46.1172 34.7898 46.584 34.5593 46.9707C34.3288 47.3574 33.9909 47.6523 33.5456 47.8555C33.1003 48.0547 32.5554 48.1543 31.9109 48.1543ZM36.9346 46.1562V51.5H35.8506V45.1602H36.9053L36.9346 46.1562ZM38.9151 45.125L38.9092 46.1328C38.8194 46.1133 38.7334 46.1016 38.6514 46.0977C38.5733 46.0898 38.4834 46.0859 38.3819 46.0859C38.1319 46.0859 37.9112 46.125 37.7198 46.2031C37.5284 46.2812 37.3662 46.3906 37.2334 46.5312C37.1006 46.6719 36.9952 46.8398 36.917 47.0352C36.8428 47.2266 36.794 47.4375 36.7705 47.668L36.4659 47.8438C36.4659 47.4609 36.503 47.1016 36.5772 46.7656C36.6553 46.4297 36.7745 46.1328 36.9346 45.875C37.0948 45.6133 37.2979 45.4102 37.544 45.2656C37.794 45.1172 38.0909 45.043 38.4346 45.043C38.5127 45.043 38.6026 45.0527 38.7041 45.0723C38.8057 45.0879 38.876 45.1055 38.9151 45.125ZM39.1927 48.4004V48.2656C39.1927 47.8086 39.2591 47.3848 39.392 46.9941C39.5248 46.5996 39.7162 46.2578 39.9662 45.9688C40.2162 45.6758 40.5189 45.4492 40.8744 45.2891C41.2298 45.125 41.6283 45.043 42.0697 45.043C42.515 45.043 42.9154 45.125 43.2709 45.2891C43.6302 45.4492 43.9349 45.6758 44.1849 45.9688C44.4388 46.2578 44.6322 46.5996 44.765 46.9941C44.8978 47.3848 44.9642 47.8086 44.9642 48.2656V48.4004C44.9642 48.8574 44.8978 49.2812 44.765 49.6719C44.6322 50.0625 44.4388 50.4043 44.1849 50.6973C43.9349 50.9863 43.6322 51.2129 43.2767 51.377C42.9252 51.5371 42.5267 51.6172 42.0814 51.6172C41.6361 51.6172 41.2357 51.5371 40.8802 51.377C40.5248 51.2129 40.2201 50.9863 39.9662 50.6973C39.7162 50.4043 39.5248 50.0625 39.392 49.6719C39.2591 49.2812 39.1927 48.8574 39.1927 48.4004ZM40.2767 48.2656V48.4004C40.2767 48.7168 40.3138 49.0156 40.3881 49.2969C40.4623 49.5742 40.5736 49.8203 40.722 50.0352C40.8744 50.25 41.0638 50.4199 41.2904 50.5449C41.517 50.666 41.7806 50.7266 42.0814 50.7266C42.3783 50.7266 42.6381 50.666 42.8607 50.5449C43.0873 50.4199 43.2748 50.25 43.4232 50.0352C43.5716 49.8203 43.683 49.5742 43.7572 49.2969C43.8353 49.0156 43.8744 48.7168 43.8744 48.4004V48.2656C43.8744 47.9531 43.8353 47.6582 43.7572 47.3809C43.683 47.0996 43.5697 46.8516 43.4173 46.6367C43.2689 46.418 43.0814 46.2461 42.8548 46.1211C42.6322 45.9961 42.3705 45.9336 42.0697 45.9336C41.7728 45.9336 41.5111 45.9961 41.2845 46.1211C41.0619 46.2461 40.8744 46.418 40.722 46.6367C40.5736 46.8516 40.4623 47.0996 40.3881 47.3809C40.3138 47.6582 40.2767 47.9531 40.2767 48.2656ZM49.9997 50.2695V42.5H51.0895V51.5H50.0934L49.9997 50.2695ZM45.7341 48.4004V48.2773C45.7341 47.793 45.7927 47.3535 45.9098 46.959C46.0309 46.5605 46.2009 46.2188 46.4196 45.9336C46.6423 45.6484 46.9059 45.4297 47.2106 45.2773C47.5192 45.1211 47.863 45.043 48.2419 45.043C48.6403 45.043 48.988 45.1133 49.2848 45.2539C49.5856 45.3906 49.8395 45.5918 50.0466 45.8574C50.2575 46.1191 50.4235 46.4355 50.5446 46.8066C50.6657 47.1777 50.7497 47.5977 50.7966 48.0664V48.6055C50.7536 49.0703 50.6696 49.4883 50.5446 49.8594C50.4235 50.2305 50.2575 50.5469 50.0466 50.8086C49.8395 51.0703 49.5856 51.2715 49.2848 51.4121C48.9841 51.5488 48.6325 51.6172 48.2302 51.6172C47.8591 51.6172 47.5192 51.5371 47.2106 51.377C46.9059 51.2168 46.6423 50.9922 46.4196 50.7031C46.2009 50.4141 46.0309 50.0742 45.9098 49.6836C45.7927 49.2891 45.7341 48.8613 45.7341 48.4004ZM46.8239 48.2773V48.4004C46.8239 48.7168 46.8552 49.0137 46.9177 49.291C46.9841 49.5684 47.0856 49.8125 47.2223 50.0234C47.3591 50.2344 47.5329 50.4004 47.7438 50.5215C47.9548 50.6387 48.2067 50.6973 48.4997 50.6973C48.8591 50.6973 49.154 50.6211 49.3845 50.4688C49.6188 50.3164 49.8063 50.1152 49.947 49.8652C50.0876 49.6152 50.197 49.3438 50.2751 49.0508V47.6387C50.2282 47.4238 50.1598 47.2168 50.07 47.0176C49.9841 46.8145 49.8708 46.6348 49.7302 46.4785C49.5934 46.3184 49.4235 46.1914 49.2204 46.0977C49.0212 46.0039 48.7848 45.957 48.5114 45.957C48.2145 45.957 47.9587 46.0195 47.7438 46.1445C47.5329 46.2656 47.3591 46.4336 47.2223 46.6484C47.0856 46.8594 46.9841 47.1055 46.9177 47.3867C46.8552 47.6641 46.8239 47.9609 46.8239 48.2773ZM56.3359 50.0352V45.1602H57.4258V51.5H56.3887L56.3359 50.0352ZM56.541 48.6992L56.9922 48.6875C56.9922 49.1094 56.9473 49.5 56.8574 49.8594C56.7715 50.2148 56.6309 50.5234 56.4355 50.7852C56.2402 51.0469 55.9844 51.252 55.668 51.4004C55.3516 51.5449 54.9668 51.6172 54.5137 51.6172C54.2051 51.6172 53.9219 51.5723 53.6641 51.4824C53.4102 51.3926 53.1914 51.2539 53.0078 51.0664C52.8242 50.8789 52.6816 50.6348 52.5801 50.334C52.4824 50.0332 52.4336 49.6719 52.4336 49.25V45.1602H53.5176V49.2617C53.5176 49.5469 53.5488 49.7832 53.6113 49.9707C53.6777 50.1543 53.7656 50.3008 53.875 50.4102C53.9883 50.5156 54.1133 50.5898 54.25 50.6328C54.3906 50.6758 54.5352 50.6973 54.6836 50.6973C55.1445 50.6973 55.5098 50.6094 55.7793 50.4336C56.0488 50.2539 56.2422 50.0137 56.3594 49.7129C56.4805 49.4082 56.541 49.0703 56.541 48.6992ZM61.2952 50.7266C61.553 50.7266 61.7913 50.6738 62.0101 50.5684C62.2288 50.4629 62.4085 50.3184 62.5491 50.1348C62.6898 49.9473 62.7698 49.7344 62.7894 49.4961H63.8206C63.8011 49.8711 63.6741 50.2207 63.4398 50.5449C63.2093 50.8652 62.9066 51.125 62.5316 51.3242C62.1566 51.5195 61.7445 51.6172 61.2952 51.6172C60.8187 51.6172 60.4027 51.5332 60.0472 51.3652C59.6956 51.1973 59.4027 50.9668 59.1683 50.6738C58.9378 50.3809 58.764 50.0449 58.6468 49.666C58.5335 49.2832 58.4769 48.8789 58.4769 48.4531V48.207C58.4769 47.7812 58.5335 47.3789 58.6468 47C58.764 46.6172 58.9378 46.2793 59.1683 45.9863C59.4027 45.6934 59.6956 45.4629 60.0472 45.2949C60.4027 45.127 60.8187 45.043 61.2952 45.043C61.7913 45.043 62.2249 45.1445 62.596 45.3477C62.9671 45.5469 63.2581 45.8203 63.4691 46.168C63.6839 46.5117 63.8011 46.9023 63.8206 47.3398H62.7894C62.7698 47.0781 62.6956 46.8418 62.5667 46.6309C62.4417 46.4199 62.2698 46.252 62.0511 46.127C61.8363 45.998 61.5843 45.9336 61.2952 45.9336C60.9632 45.9336 60.6839 46 60.4573 46.1328C60.2347 46.2617 60.057 46.4375 59.9241 46.6602C59.7952 46.8789 59.7015 47.123 59.6429 47.3926C59.5882 47.6582 59.5609 47.9297 59.5609 48.207V48.4531C59.5609 48.7305 59.5882 49.0039 59.6429 49.2734C59.6976 49.543 59.7894 49.7871 59.9183 50.0059C60.0511 50.2246 60.2288 50.4004 60.4515 50.5332C60.678 50.6621 60.9593 50.7266 61.2952 50.7266ZM67.3737 45.1602V45.9922H63.9459V45.1602H67.3737ZM65.1061 43.6191H66.1901V49.9297C66.1901 50.1445 66.2233 50.3066 66.2897 50.416C66.3561 50.5254 66.442 50.5977 66.5475 50.6328C66.653 50.668 66.7663 50.6855 66.8873 50.6855C66.9772 50.6855 67.0709 50.6777 67.1686 50.6621C67.2702 50.6426 67.3463 50.627 67.3971 50.6152L67.403 51.5C67.317 51.5273 67.2038 51.5527 67.0631 51.5762C66.9264 51.6035 66.7604 51.6172 66.5651 51.6172C66.2995 51.6172 66.0553 51.5645 65.8327 51.459C65.61 51.3535 65.4323 51.1777 65.2995 50.9316C65.1705 50.6816 65.1061 50.3457 65.1061 49.9238V43.6191ZM72.3587 42.9688V51.5H71.2278V42.9688H72.3587ZM75.0094 46.4199V51.5H73.9195V45.1602H74.9508L75.0094 46.4199ZM74.7867 48.0898L74.2828 48.0723C74.2867 47.6387 74.3434 47.2383 74.4527 46.8711C74.5621 46.5 74.7242 46.1777 74.9391 45.9043C75.1539 45.6309 75.4215 45.4199 75.7418 45.2715C76.0621 45.1191 76.4332 45.043 76.8551 45.043C77.1519 45.043 77.4254 45.0859 77.6754 45.1719C77.9254 45.2539 78.1422 45.3848 78.3258 45.5645C78.5094 45.7441 78.6519 45.9746 78.7535 46.2559C78.8551 46.5371 78.9059 46.877 78.9059 47.2754V51.5H77.8219V47.3281C77.8219 46.9961 77.7652 46.7305 77.6519 46.5312C77.5426 46.332 77.3863 46.1875 77.1832 46.0977C76.9801 46.0039 76.7418 45.957 76.4684 45.957C76.148 45.957 75.8805 46.0137 75.6656 46.127C75.4508 46.2402 75.2789 46.3965 75.15 46.5957C75.0211 46.7949 74.9273 47.0234 74.8687 47.2812C74.8141 47.5352 74.7867 47.8047 74.7867 48.0898ZM78.8941 47.4922L78.1676 47.7148C78.1715 47.3672 78.2281 47.0332 78.3375 46.7129C78.4508 46.3926 78.6129 46.1074 78.8238 45.8574C79.0387 45.6074 79.3023 45.4102 79.6148 45.2656C79.9273 45.1172 80.2848 45.043 80.6871 45.043C81.0269 45.043 81.3277 45.0879 81.5894 45.1777C81.8551 45.2676 82.0777 45.4062 82.2574 45.5938C82.441 45.7773 82.5797 46.0137 82.6734 46.3027C82.7672 46.5918 82.8141 46.9355 82.8141 47.334V51.5H81.7242V47.3223C81.7242 46.9668 81.6676 46.6914 81.5543 46.4961C81.4449 46.2969 81.2887 46.1582 81.0855 46.0801C80.8863 45.998 80.648 45.957 80.3707 45.957C80.1324 45.957 79.9215 45.998 79.7379 46.0801C79.5543 46.1621 79.4 46.2754 79.275 46.4199C79.15 46.5605 79.0543 46.7227 78.9879 46.9062C78.9254 47.0898 78.8941 47.2852 78.8941 47.4922ZM87.873 50.416V47.1523C87.873 46.9023 87.8222 46.6855 87.7206 46.502C87.623 46.3145 87.4745 46.1699 87.2753 46.0684C87.0761 45.9668 86.83 45.916 86.537 45.916C86.2636 45.916 86.0234 45.9629 85.8163 46.0566C85.6132 46.1504 85.453 46.2734 85.3359 46.4258C85.2226 46.5781 85.1659 46.7422 85.1659 46.918H84.082C84.082 46.6914 84.1405 46.4668 84.2577 46.2441C84.3749 46.0215 84.5429 45.8203 84.7616 45.6406C84.9843 45.457 85.2499 45.3125 85.5585 45.207C85.871 45.0977 86.2187 45.043 86.6015 45.043C87.0624 45.043 87.4687 45.1211 87.8202 45.2773C88.1757 45.4336 88.453 45.6699 88.6523 45.9863C88.8554 46.2988 88.957 46.6914 88.957 47.1641V50.1172C88.957 50.3281 88.9745 50.5527 89.0097 50.791C89.0488 51.0293 89.1054 51.2344 89.1796 51.4062V51.5H88.0488C87.9941 51.375 87.9511 51.209 87.9198 51.002C87.8886 50.791 87.873 50.5957 87.873 50.416ZM88.0605 47.6562L88.0722 48.418H86.9765C86.6679 48.418 86.3925 48.4434 86.1503 48.4941C85.9081 48.541 85.705 48.6133 85.5409 48.7109C85.3769 48.8086 85.2519 48.9316 85.1659 49.0801C85.08 49.2246 85.037 49.3945 85.037 49.5898C85.037 49.7891 85.082 49.9707 85.1718 50.1348C85.2616 50.2988 85.3964 50.4297 85.5761 50.5273C85.7597 50.6211 85.9843 50.668 86.2499 50.668C86.582 50.668 86.8749 50.5977 87.1288 50.457C87.3827 50.3164 87.5839 50.1445 87.7323 49.9414C87.8847 49.7383 87.9667 49.541 87.9784 49.3496L88.4413 49.8711C88.414 50.0352 88.3398 50.2168 88.2187 50.416C88.0976 50.6152 87.9355 50.8066 87.7323 50.9902C87.5331 51.1699 87.2948 51.3203 87.0175 51.4414C86.7441 51.5586 86.4355 51.6172 86.0917 51.6172C85.662 51.6172 85.2851 51.5332 84.9609 51.3652C84.6405 51.1973 84.3905 50.9727 84.2109 50.6914C84.0351 50.4062 83.9472 50.0879 83.9472 49.7363C83.9472 49.3965 84.0136 49.0977 84.1464 48.8398C84.2792 48.5781 84.4706 48.3613 84.7206 48.1895C84.9706 48.0137 85.2714 47.8809 85.623 47.791C85.9745 47.7012 86.3671 47.6562 86.8007 47.6562H88.0605ZM94.4494 45.1602H95.4338V51.3652C95.4338 51.9238 95.3205 52.4004 95.094 52.7949C94.8674 53.1895 94.551 53.4883 94.1448 53.6914C93.7424 53.8984 93.2776 54.002 92.7502 54.002C92.5315 54.002 92.2737 53.9668 91.9768 53.8965C91.6838 53.8301 91.3948 53.7148 91.1096 53.5508C90.8284 53.3906 90.592 53.1738 90.4006 52.9004L90.969 52.2559C91.2346 52.5762 91.5119 52.7988 91.801 52.9238C92.094 53.0488 92.383 53.1113 92.6682 53.1113C93.0119 53.1113 93.3088 53.0469 93.5588 52.918C93.8088 52.7891 94.0022 52.5977 94.1389 52.3438C94.2795 52.0938 94.3498 51.7852 94.3498 51.418V46.5547L94.4494 45.1602ZM90.0842 48.4004V48.2773C90.0842 47.793 90.1409 47.3535 90.2541 46.959C90.3713 46.5605 90.5373 46.2188 90.7522 45.9336C90.9709 45.6484 91.2346 45.4297 91.5432 45.2773C91.8518 45.1211 92.1994 45.043 92.5862 45.043C92.9846 45.043 93.3323 45.1133 93.6291 45.2539C93.9299 45.3906 94.1838 45.5918 94.3909 45.8574C94.6018 46.1191 94.7678 46.4355 94.8889 46.8066C95.01 47.1777 95.094 47.5977 95.1409 48.0664V48.6055C95.0979 49.0703 95.0139 49.4883 94.8889 49.8594C94.7678 50.2305 94.6018 50.5469 94.3909 50.8086C94.1838 51.0703 93.9299 51.2715 93.6291 51.4121C93.3284 51.5488 92.9768 51.6172 92.5744 51.6172C92.1955 51.6172 91.8518 51.5371 91.5432 51.377C91.2385 51.2168 90.9768 50.9922 90.758 50.7031C90.5393 50.4141 90.3713 50.0742 90.2541 49.6836C90.1409 49.2891 90.0842 48.8613 90.0842 48.4004ZM91.1682 48.2773V48.4004C91.1682 48.7168 91.1994 49.0137 91.2619 49.291C91.3284 49.5684 91.428 49.8125 91.5608 50.0234C91.6975 50.2344 91.8713 50.4004 92.0823 50.5215C92.2932 50.6387 92.5452 50.6973 92.8381 50.6973C93.1975 50.6973 93.4944 50.6211 93.7287 50.4688C93.9631 50.3164 94.1487 50.1152 94.2854 49.8652C94.426 49.6152 94.5354 49.3438 94.6135 49.0508V47.6387C94.5705 47.4238 94.5041 47.2168 94.4143 47.0176C94.3284 46.8145 94.2151 46.6348 94.0744 46.4785C93.9377 46.3184 93.7678 46.1914 93.5647 46.0977C93.3616 46.0039 93.1233 45.957 92.8498 45.957C92.553 45.957 92.2971 46.0195 92.0823 46.1445C91.8713 46.2656 91.6975 46.4336 91.5608 46.6484C91.428 46.8594 91.3284 47.1055 91.2619 47.3867C91.1994 47.6641 91.1682 47.9609 91.1682 48.2773ZM99.3912 51.6172C98.9498 51.6172 98.5494 51.543 98.19 51.3945C97.8345 51.2422 97.5279 51.0293 97.2701 50.7559C97.0162 50.4824 96.8209 50.1582 96.6841 49.7832C96.5474 49.4082 96.4791 48.998 96.4791 48.5527V48.3066C96.4791 47.791 96.5552 47.332 96.7076 46.9297C96.8599 46.5234 97.067 46.1797 97.3287 45.8984C97.5904 45.6172 97.8873 45.4043 98.2193 45.2598C98.5513 45.1152 98.8951 45.043 99.2505 45.043C99.7037 45.043 100.094 45.1211 100.422 45.2773C100.754 45.4336 101.026 45.6523 101.237 45.9336C101.448 46.2109 101.604 46.5391 101.706 46.918C101.807 47.293 101.858 47.7031 101.858 48.1484V48.6348H97.1236V47.75H100.774V47.668C100.758 47.3867 100.7 47.1133 100.598 46.8477C100.501 46.582 100.344 46.3633 100.129 46.1914C99.9146 46.0195 99.6216 45.9336 99.2505 45.9336C99.0045 45.9336 98.7779 45.9863 98.5709 46.0918C98.3638 46.1934 98.1861 46.3457 98.0377 46.5488C97.8892 46.752 97.774 47 97.692 47.293C97.6099 47.5859 97.5689 47.9238 97.5689 48.3066V48.5527C97.5689 48.8535 97.6099 49.1367 97.692 49.4023C97.7779 49.6641 97.9009 49.8945 98.0611 50.0938C98.2252 50.293 98.4224 50.4492 98.6529 50.5625C98.8873 50.6758 99.1529 50.7324 99.4498 50.7324C99.8326 50.7324 100.157 50.6543 100.422 50.498C100.688 50.3418 100.92 50.1328 101.12 49.8711L101.776 50.3926C101.639 50.5996 101.465 50.7969 101.254 50.9844C101.044 51.1719 100.784 51.3242 100.475 51.4414C100.17 51.5586 99.8091 51.6172 99.3912 51.6172Z" fill="black"/>
<defs>
<linearGradient id="paint0_linear_38_9866" x1="53.4997" y1="7.17896" x2="53.4997" y2="26.6594" gradientUnits="userSpaceOnUse">
<stop stop-color="#EB3030"/>
<stop offset="1" stop-color="#851B1B"/>
</linearGradient>
<linearGradient id="paint1_linear_38_9866" x1="52.3282" y1="16.5608" x2="52.3282" y2="29.8197" gradientUnits="userSpaceOnUse">
<stop stop-color="#EB3030"/>
<stop offset="1" stop-color="#851B1B"/>
</linearGradient>
</defs>
</svg>
