<svg width="37" height="37" viewBox="0 0 37 37" fill="none" xmlns="http://www.w3.org/2000/svg">
<path fill-rule="evenodd" clip-rule="evenodd" d="M11.402 7.48691C16.1256 7.0763 20.8759 7.0763 25.5995 7.48691L27.8645 7.68491C28.9175 7.7766 29.9091 8.22004 30.6794 8.94384C31.4497 9.66763 31.954 10.6296 32.111 11.6749C32.7913 16.1995 32.7913 20.8003 32.111 25.3249C32.051 25.7209 31.943 26.1004 31.793 26.4559C31.694 26.6914 31.388 26.7274 31.214 26.5384L24.5825 19.2424C24.4359 19.0811 24.2455 18.9659 24.0346 18.9108C23.8237 18.8557 23.6013 18.863 23.3945 18.9319L19.598 20.1979L14.0915 14.0029C13.9897 13.8883 13.8655 13.7957 13.7265 13.7309C13.5876 13.666 13.4369 13.6303 13.2836 13.6258C13.1304 13.6213 12.9778 13.6481 12.8353 13.7047C12.6928 13.7614 12.5634 13.8465 12.455 13.9549L5.08402 21.3259C5.03394 21.3774 4.96994 21.4131 4.89985 21.4288C4.82976 21.4444 4.75663 21.4392 4.68943 21.4139C4.62224 21.3886 4.56389 21.3442 4.52154 21.2862C4.47919 21.2282 4.45468 21.1591 4.45102 21.0874C4.27364 17.9427 4.42041 14.7881 4.88902 11.6734C5.04604 10.6281 5.55033 9.66613 6.32065 8.94234C7.09097 8.21854 8.08249 7.7751 9.13552 7.68341L11.402 7.48691ZM21.5 13.9999C21.5 13.4032 21.7371 12.8309 22.159 12.4089C22.581 11.987 23.1533 11.7499 23.75 11.7499C24.3468 11.7499 24.9191 11.987 25.341 12.4089C25.763 12.8309 26 13.4032 26 13.9999C26 14.5967 25.763 15.1689 25.341 15.5909C24.9191 16.0129 24.3468 16.2499 23.75 16.2499C23.1533 16.2499 22.581 16.0129 22.159 15.5909C21.7371 15.1689 21.5 14.5967 21.5 13.9999Z" fill="url(#paint0_linear_38_9867)"/>
<path d="M4.9416 24.6499C4.901 24.6908 4.87039 24.7405 4.85217 24.7951C4.83396 24.8497 4.82863 24.9079 4.8366 24.9649L4.8891 25.3249C5.04613 26.3702 5.55041 27.3322 6.32074 28.056C7.09106 28.7798 8.08258 29.2232 9.1356 29.3149L11.4006 29.5114C16.1256 29.9224 20.8746 29.9224 25.5996 29.5114L27.8646 29.3149C28.4858 29.2612 29.09 29.0842 29.6421 28.7944C29.8476 28.6879 29.8821 28.4164 29.7261 28.2454L23.5761 21.4804C23.5273 21.4261 23.4636 21.3872 23.393 21.3686C23.3224 21.3499 23.2479 21.3523 23.1786 21.3754L19.6056 22.5664C19.3967 22.6362 19.1719 22.6431 18.9592 22.5863C18.7464 22.5295 18.5549 22.4115 18.4086 22.2469L13.4661 16.6864C13.4321 16.6482 13.3906 16.6174 13.3442 16.5958C13.2978 16.5742 13.2475 16.5623 13.1963 16.5609C13.1452 16.5595 13.0943 16.5686 13.0468 16.5876C12.9993 16.6066 12.9562 16.6351 12.9201 16.6714L4.9416 24.6499Z" fill="url(#paint1_linear_38_9867)"/>
<defs>
<linearGradient id="paint0_linear_38_9867" x1="18.4997" y1="7.17896" x2="18.4997" y2="26.6594" gradientUnits="userSpaceOnUse">
<stop stop-color="#EB3030"/>
<stop offset="1" stop-color="#851B1B"/>
</linearGradient>
<linearGradient id="paint1_linear_38_9867" x1="17.3282" y1="16.5608" x2="17.3282" y2="29.8197" gradientUnits="userSpaceOnUse">
<stop stop-color="#EB3030"/>
<stop offset="1" stop-color="#851B1B"/>
</linearGradient>
</defs>
</svg>
