<svg width="46" height="18" viewBox="0 0 46 18" fill="none" xmlns="http://www.w3.org/2000/svg">
<path d="M24.376 11.0283V12H20.6016V11.0283H24.376ZM20.9482 4.89062V12H19.7227V4.89062H20.9482ZM23.8828 7.85938V8.81641H20.6016V7.85938H23.8828ZM24.3516 4.89062V5.86719H20.6016V4.89062H24.3516ZM28.3848 10.9062V4.5H29.5664V12H28.4971L28.3848 10.9062ZM24.9473 9.41699V9.31445C24.9473 8.91406 24.9945 8.54948 25.0889 8.2207C25.1833 7.88867 25.32 7.60384 25.499 7.36621C25.6781 7.12533 25.8962 6.94141 26.1533 6.81445C26.4105 6.68424 26.7002 6.61914 27.0225 6.61914C27.3415 6.61914 27.6214 6.68099 27.8623 6.80469C28.1032 6.92839 28.3083 7.10579 28.4775 7.33691C28.6468 7.56478 28.7819 7.83822 28.8828 8.15723C28.9837 8.47298 29.0553 8.82454 29.0977 9.21191V9.53906C29.0553 9.91667 28.9837 10.2617 28.8828 10.5742C28.7819 10.8867 28.6468 11.1569 28.4775 11.3848C28.3083 11.6126 28.1016 11.7884 27.8574 11.9121C27.6165 12.0358 27.335 12.0977 27.0127 12.0977C26.6937 12.0977 26.4056 12.0309 26.1484 11.8975C25.8945 11.764 25.6781 11.5768 25.499 11.3359C25.32 11.0951 25.1833 10.8118 25.0889 10.4863C24.9945 10.1576 24.9473 9.80111 24.9473 9.41699ZM26.124 9.31445V9.41699C26.124 9.65788 26.1452 9.88249 26.1875 10.0908C26.2331 10.2992 26.3031 10.4831 26.3975 10.6426C26.4919 10.7988 26.6139 10.9225 26.7637 11.0137C26.9167 11.1016 27.099 11.1455 27.3105 11.1455C27.5775 11.1455 27.7972 11.0869 27.9697 10.9697C28.1423 10.8525 28.2773 10.6947 28.375 10.4961C28.4759 10.2943 28.5443 10.0697 28.5801 9.82227V8.93848C28.5605 8.74642 28.5199 8.56738 28.458 8.40137C28.3994 8.23535 28.3197 8.09049 28.2188 7.9668C28.1178 7.83984 27.9925 7.74219 27.8428 7.67383C27.6963 7.60221 27.5221 7.56641 27.3203 7.56641C27.1055 7.56641 26.9232 7.61198 26.7734 7.70312C26.6237 7.79427 26.5 7.9196 26.4023 8.0791C26.3079 8.23861 26.238 8.42415 26.1924 8.63574C26.1468 8.84733 26.124 9.07357 26.124 9.31445ZM32.0566 6.7168V12H30.875V6.7168H32.0566ZM30.7969 5.33008C30.7969 5.15104 30.8555 5.00293 30.9727 4.88574C31.0931 4.7653 31.2591 4.70508 31.4707 4.70508C31.679 4.70508 31.8434 4.7653 31.9639 4.88574C32.0843 5.00293 32.1445 5.15104 32.1445 5.33008C32.1445 5.50586 32.0843 5.65234 31.9639 5.76953C31.8434 5.88672 31.679 5.94531 31.4707 5.94531C31.2591 5.94531 31.0931 5.88672 30.9727 5.76953C30.8555 5.65234 30.7969 5.50586 30.7969 5.33008ZM35.7676 6.7168V7.57617H32.7891V6.7168H35.7676ZM33.6484 5.42285H34.8252V10.54C34.8252 10.7028 34.848 10.8281 34.8936 10.916C34.9424 11.0007 35.0091 11.0576 35.0938 11.0869C35.1784 11.1162 35.2777 11.1309 35.3916 11.1309C35.473 11.1309 35.5511 11.126 35.626 11.1162C35.7008 11.1064 35.7611 11.0967 35.8066 11.0869L35.8115 11.9854C35.7139 12.0146 35.5999 12.0407 35.4697 12.0635C35.3428 12.0863 35.1963 12.0977 35.0303 12.0977C34.7601 12.0977 34.5208 12.0505 34.3125 11.9561C34.1042 11.8584 33.9414 11.7005 33.8242 11.4824C33.707 11.2643 33.6484 10.9746 33.6484 10.6133V5.42285Z" fill="black"/>
<path d="M19 12.9766H36.0703V13.4648H19V12.9766Z" fill="black"/>
<g clip-path="url(#clip0_685_1835)">
<path d="M13.9312 10.0256V12.8006C13.9311 13.1933 13.775 13.5698 13.4974 13.8474C13.2198 14.1251 12.8433 14.2811 12.4506 14.2813H5.2C5.00484 14.2812 4.81163 14.2425 4.63146 14.1676C4.45128 14.0926 4.2877 13.9827 4.15012 13.8443C4.01253 13.7059 3.90365 13.5417 3.82972 13.3611C3.7558 13.1805 3.7183 12.987 3.71937 12.7919V5.54939C3.71821 5.35455 3.75573 5.16141 3.82976 4.98117C3.90379 4.80093 4.01285 4.63718 4.15063 4.4994C4.28841 4.36162 4.45216 4.25256 4.6324 4.17853C4.81264 4.1045 5.00578 4.06698 5.20062 4.06814H7.975" stroke="url(#paint0_linear_685_1835)" stroke-width="1.5" stroke-linecap="round" stroke-linejoin="round"/>
<path d="M13.9312 6.62182L11.3781 4.06807M6.27187 10.8768V9.5237C6.27312 9.30057 6.36187 9.0862 6.51874 8.92807L12.4762 2.97057C12.5553 2.89064 12.6494 2.82718 12.7532 2.78387C12.8569 2.74056 12.9682 2.71826 13.0806 2.71826C13.193 2.71826 13.3043 2.74056 13.4081 2.78387C13.5118 2.82718 13.6059 2.89064 13.685 2.97057L15.0294 4.31495C15.1093 4.394 15.1728 4.48812 15.2161 4.59186C15.2594 4.6956 15.2817 4.8069 15.2817 4.91932C15.2817 5.03174 15.2594 5.14305 15.2161 5.24679C15.1728 5.35053 15.1093 5.44465 15.0294 5.5237L9.07187 11.4812C8.91345 11.6385 8.6995 11.7272 8.47624 11.7281H7.12312C7.01128 11.7282 6.90052 11.7063 6.79716 11.6636C6.69381 11.6209 6.5999 11.5582 6.52082 11.4791C6.44175 11.4 6.37905 11.3061 6.33633 11.2028C6.29361 11.0994 6.2717 10.9887 6.27187 10.8768Z" stroke="url(#paint1_linear_685_1835)" stroke-width="1.5" stroke-linecap="round" stroke-linejoin="round"/>
</g>
<defs>
<linearGradient id="paint0_linear_685_1835" x1="8.8253" y1="4.06812" x2="8.8253" y2="14.2813" gradientUnits="userSpaceOnUse">
<stop stop-color="#EB3030"/>
<stop offset="1" stop-color="#851B1B"/>
</linearGradient>
<linearGradient id="paint1_linear_685_1835" x1="10.7768" y1="2.71826" x2="10.7768" y2="11.7281" gradientUnits="userSpaceOnUse">
<stop stop-color="#EB3030"/>
<stop offset="1" stop-color="#851B1B"/>
</linearGradient>
<clipPath id="clip0_685_1835">
<rect width="15" height="15" fill="white" transform="translate(2 1)"/>
</clipPath>
</defs>
</svg>
