<svg width="22" height="22" viewBox="0 0 22 22" fill="none" xmlns="http://www.w3.org/2000/svg">
<path d="M20.984 9C20.947 7.689 20.823 6.853 20.403 6.14C19.805 5.125 18.729 4.56 16.578 3.432L14.578 2.382C12.822 1.461 11.944 1 11 1C10.056 1 9.178 1.46 7.422 2.382L5.422 3.432C3.271 4.56 2.195 5.125 1.597 6.14C1 7.154 1 8.417 1 10.942V11.059C1 13.583 1 14.846 1.597 15.86C2.195 16.875 3.271 17.44 5.422 18.569L7.422 19.618C9.178 20.539 10.056 21 11 21C11.944 21 12.822 20.54 14.578 19.618L16.578 18.568C18.729 17.439 19.805 16.875 20.403 15.86C20.823 15.147 20.947 14.311 20.984 13M20 6.5L16 8.5M16 8.5L15.5 8.75L11 11M16 8.5V12M16 8.5L6.5 3.5M11 11L2 6.5M11 11V20.5" stroke="black" stroke-width="1.5" stroke-linecap="round"/>
</svg>
