<svg width="61" height="44" viewBox="0 0 61 44" fill="none" xmlns="http://www.w3.org/2000/svg">
<path d="M20.5 18C20.5 16.46 20.5 15.69 20.847 15.124C21.041 14.807 21.307 14.541 21.624 14.347C22.189 14 22.96 14 24.5 14C26.04 14 26.81 14 27.376 14.347C27.693 14.541 27.959 14.807 28.153 15.124C28.5 15.689 28.5 16.46 28.5 18C28.5 19.54 28.5 20.31 28.153 20.877C27.959 21.193 27.693 21.459 27.376 21.653C26.811 22 26.04 22 24.5 22C22.96 22 22.19 22 21.624 21.653C21.3074 21.4593 21.0411 21.1934 20.847 20.877C20.5 20.31 20.5 19.54 20.5 18ZM32.5 18C32.5 16.46 32.5 15.69 32.847 15.124C33.041 14.807 33.307 14.541 33.624 14.347C34.189 14 34.96 14 36.5 14C38.04 14 38.81 14 39.377 14.347C39.693 14.541 39.959 14.807 40.153 15.124C40.5 15.689 40.5 16.46 40.5 18C40.5 19.54 40.5 20.31 40.153 20.877C39.9589 21.1931 39.6931 21.4589 39.377 21.653C38.81 22 38.04 22 36.5 22C34.96 22 34.19 22 33.624 21.653C33.3073 21.4593 33.0411 21.1934 32.847 20.877C32.5 20.31 32.5 19.54 32.5 18ZM20.5 6C20.5 4.46 20.5 3.69 20.847 3.124C21.041 2.807 21.307 2.541 21.624 2.347C22.189 2 22.96 2 24.5 2C26.04 2 26.81 2 27.376 2.347C27.693 2.541 27.959 2.807 28.153 3.124C28.5 3.689 28.5 4.46 28.5 6C28.5 7.54 28.5 8.31 28.153 8.876C27.959 9.193 27.693 9.459 27.376 9.653C26.811 10 26.04 10 24.5 10C22.96 10 22.19 10 21.624 9.653C21.3072 9.45904 21.041 9.19277 20.847 8.876C20.5 8.311 20.5 7.54 20.5 6ZM32.5 6C32.5 4.46 32.5 3.69 32.847 3.124C33.041 2.807 33.307 2.541 33.624 2.347C34.189 2 34.96 2 36.5 2C38.04 2 38.81 2 39.377 2.347C39.693 2.541 39.959 2.807 40.153 3.124C40.5 3.689 40.5 4.46 40.5 6C40.5 7.54 40.5 8.31 40.153 8.876C39.959 9.193 39.693 9.459 39.377 9.653C38.81 10 38.04 10 36.5 10C34.96 10 34.19 10 33.624 9.653C33.3072 9.45904 33.041 9.19277 32.847 8.876C32.5 8.311 32.5 7.54 32.5 6Z" stroke="black" stroke-width="1.5" stroke-linecap="round" stroke-linejoin="round"/>
<path d="M5.95977 37.2871H7.08477C7.02617 37.8262 6.87188 38.3086 6.62188 38.7344C6.37188 39.1602 6.01836 39.498 5.56133 39.748C5.1043 39.9941 4.53399 40.1172 3.85039 40.1172C3.35039 40.1172 2.89531 40.0234 2.48516 39.8359C2.07891 39.6484 1.7293 39.3828 1.43633 39.0391C1.14336 38.6914 0.916798 38.2754 0.756641 37.791C0.600391 37.3027 0.522266 36.7598 0.522266 36.1621V35.3125C0.522266 34.7148 0.600391 34.1738 0.756641 33.6895C0.916798 33.2012 1.14531 32.7832 1.44219 32.4355C1.74297 32.0879 2.1043 31.8203 2.52617 31.6328C2.94805 31.4453 3.42266 31.3516 3.95 31.3516C4.59453 31.3516 5.13945 31.4727 5.58477 31.7148C6.03008 31.957 6.37578 32.293 6.62188 32.7227C6.87188 33.1484 7.02617 33.6426 7.08477 34.2051H5.95977C5.90508 33.8066 5.80352 33.4648 5.65508 33.1797C5.50664 32.8906 5.2957 32.668 5.02227 32.5117C4.74883 32.3555 4.39141 32.2773 3.95 32.2773C3.57109 32.2773 3.23711 32.3496 2.94805 32.4941C2.66289 32.6387 2.42266 32.8438 2.22734 33.1094C2.03594 33.375 1.89141 33.6934 1.79375 34.0645C1.69609 34.4355 1.64727 34.8477 1.64727 35.3008V36.1621C1.64727 36.5801 1.69024 36.9727 1.77617 37.3398C1.86602 37.707 2.00078 38.0293 2.18047 38.3066C2.36016 38.584 2.58867 38.8027 2.86602 38.9629C3.14336 39.1191 3.47149 39.1973 3.85039 39.1973C4.33086 39.1973 4.71367 39.1211 4.99883 38.9688C5.28399 38.8164 5.49883 38.5977 5.64336 38.3125C5.7918 38.0273 5.89727 37.6855 5.95977 37.2871ZM12.6 38.916V35.6523C12.6 35.4023 12.5492 35.1855 12.4477 35.002C12.35 34.8145 12.2016 34.6699 12.0023 34.5684C11.8031 34.4668 11.557 34.416 11.2641 34.416C10.9906 34.416 10.7504 34.4629 10.5434 34.5566C10.3402 34.6504 10.1801 34.7734 10.0629 34.9258C9.94961 35.0781 9.89297 35.2422 9.89297 35.418H8.80898C8.80898 35.1914 8.86758 34.9668 8.98477 34.7441C9.10195 34.5215 9.26992 34.3203 9.48867 34.1406C9.71133 33.957 9.97695 33.8125 10.2855 33.707C10.598 33.5977 10.9457 33.543 11.3285 33.543C11.7895 33.543 12.1957 33.6211 12.5473 33.7773C12.9027 33.9336 13.1801 34.1699 13.3793 34.4863C13.5824 34.7988 13.684 35.1914 13.684 35.6641V38.6172C13.684 38.8281 13.7016 39.0527 13.7367 39.291C13.7758 39.5293 13.8324 39.7344 13.9066 39.9062V40H12.7758C12.7211 39.875 12.6781 39.709 12.6469 39.502C12.6156 39.291 12.6 39.0957 12.6 38.916ZM12.7875 36.1562L12.7992 36.918H11.7035C11.3949 36.918 11.1195 36.9434 10.8773 36.9941C10.6352 37.041 10.432 37.1133 10.268 37.2109C10.1039 37.3086 9.97891 37.4316 9.89297 37.5801C9.80703 37.7246 9.76406 37.8945 9.76406 38.0898C9.76406 38.2891 9.80898 38.4707 9.89883 38.6348C9.98867 38.7988 10.1234 38.9297 10.3031 39.0273C10.4867 39.1211 10.7113 39.168 10.977 39.168C11.309 39.168 11.602 39.0977 11.8559 38.957C12.1098 38.8164 12.3109 38.6445 12.4594 38.4414C12.6117 38.2383 12.6938 38.041 12.7055 37.8496L13.1684 38.3711C13.141 38.5352 13.0668 38.7168 12.9457 38.916C12.8246 39.1152 12.6625 39.3066 12.4594 39.4902C12.2602 39.6699 12.0219 39.8203 11.7445 39.9414C11.4711 40.0586 11.1625 40.1172 10.8188 40.1172C10.3891 40.1172 10.0121 40.0332 9.68789 39.8652C9.36758 39.6973 9.11758 39.4727 8.93789 39.1914C8.76211 38.9062 8.67422 38.5879 8.67422 38.2363C8.67422 37.8965 8.74063 37.5977 8.87344 37.3398C9.00625 37.0781 9.19766 36.8613 9.44766 36.6895C9.69766 36.5137 9.99844 36.3809 10.35 36.291C10.7016 36.2012 11.0941 36.1562 11.5277 36.1562H12.7875ZM18.4434 33.6602V34.4922H15.0156V33.6602H18.4434ZM16.1758 32.1191H17.2598V38.4297C17.2598 38.6445 17.293 38.8066 17.3594 38.916C17.4258 39.0254 17.5117 39.0977 17.6172 39.1328C17.7227 39.168 17.8359 39.1855 17.957 39.1855C18.0469 39.1855 18.1406 39.1777 18.2383 39.1621C18.3398 39.1426 18.416 39.127 18.4668 39.1152L18.4727 40C18.3867 40.0273 18.2734 40.0527 18.1328 40.0762C17.9961 40.1035 17.8301 40.1172 17.6348 40.1172C17.3691 40.1172 17.125 40.0645 16.9023 39.959C16.6797 39.8535 16.502 39.6777 16.3691 39.4316C16.2402 39.1816 16.1758 38.8457 16.1758 38.4238V32.1191ZM22.7457 40.1172C22.3043 40.1172 21.9039 40.043 21.5445 39.8945C21.1891 39.7422 20.8824 39.5293 20.6246 39.2559C20.3707 38.9824 20.1754 38.6582 20.0387 38.2832C19.902 37.9082 19.8336 37.498 19.8336 37.0527V36.8066C19.8336 36.291 19.9098 35.832 20.0621 35.4297C20.2145 35.0234 20.4215 34.6797 20.6832 34.3984C20.9449 34.1172 21.2418 33.9043 21.5738 33.7598C21.9059 33.6152 22.2496 33.543 22.6051 33.543C23.0582 33.543 23.4488 33.6211 23.777 33.7773C24.109 33.9336 24.3805 34.1523 24.5914 34.4336C24.8023 34.7109 24.9586 35.0391 25.0602 35.418C25.1617 35.793 25.2125 36.2031 25.2125 36.6484V37.1348H20.4781V36.25H24.1285V36.168C24.1129 35.8867 24.0543 35.6133 23.9527 35.3477C23.8551 35.082 23.6988 34.8633 23.484 34.6914C23.2691 34.5195 22.9762 34.4336 22.6051 34.4336C22.359 34.4336 22.1324 34.4863 21.9254 34.5918C21.7184 34.6934 21.5406 34.8457 21.3922 35.0488C21.2438 35.252 21.1285 35.5 21.0465 35.793C20.9645 36.0859 20.9234 36.4238 20.9234 36.8066V37.0527C20.9234 37.3535 20.9645 37.6367 21.0465 37.9023C21.1324 38.1641 21.2555 38.3945 21.4156 38.5938C21.5797 38.793 21.777 38.9492 22.0074 39.0625C22.2418 39.1758 22.5074 39.2324 22.8043 39.2324C23.1871 39.2324 23.5113 39.1543 23.777 38.998C24.0426 38.8418 24.275 38.6328 24.4742 38.3711L25.1305 38.8926C24.9938 39.0996 24.8199 39.2969 24.609 39.4844C24.398 39.6719 24.1383 39.8242 23.8297 39.9414C23.525 40.0586 23.1637 40.1172 22.7457 40.1172ZM30.9855 33.6602H31.9699V39.8652C31.9699 40.4238 31.8566 40.9004 31.6301 41.2949C31.4035 41.6895 31.0871 41.9883 30.6809 42.1914C30.2785 42.3984 29.8137 42.502 29.2863 42.502C29.0676 42.502 28.8098 42.4668 28.5129 42.3965C28.2199 42.3301 27.9309 42.2148 27.6457 42.0508C27.3645 41.8906 27.1281 41.6738 26.9367 41.4004L27.5051 40.7559C27.7707 41.0762 28.048 41.2988 28.3371 41.4238C28.6301 41.5488 28.9191 41.6113 29.2043 41.6113C29.548 41.6113 29.8449 41.5469 30.0949 41.418C30.3449 41.2891 30.5383 41.0977 30.675 40.8438C30.8156 40.5938 30.8859 40.2852 30.8859 39.918V35.0547L30.9855 33.6602ZM26.6203 36.9004V36.7773C26.6203 36.293 26.677 35.8535 26.7902 35.459C26.9074 35.0605 27.0734 34.7188 27.2883 34.4336C27.507 34.1484 27.7707 33.9297 28.0793 33.7773C28.3879 33.6211 28.7355 33.543 29.1223 33.543C29.5207 33.543 29.8684 33.6133 30.1652 33.7539C30.466 33.8906 30.7199 34.0918 30.927 34.3574C31.1379 34.6191 31.3039 34.9355 31.425 35.3066C31.5461 35.6777 31.6301 36.0977 31.677 36.5664V37.1055C31.634 37.5703 31.55 37.9883 31.425 38.3594C31.3039 38.7305 31.1379 39.0469 30.927 39.3086C30.7199 39.5703 30.466 39.7715 30.1652 39.9121C29.8645 40.0488 29.5129 40.1172 29.1105 40.1172C28.7316 40.1172 28.3879 40.0371 28.0793 39.877C27.7746 39.7168 27.5129 39.4922 27.2941 39.2031C27.0754 38.9141 26.9074 38.5742 26.7902 38.1836C26.677 37.7891 26.6203 37.3613 26.6203 36.9004ZM27.7043 36.7773V36.9004C27.7043 37.2168 27.7355 37.5137 27.798 37.791C27.8645 38.0684 27.9641 38.3125 28.0969 38.5234C28.2336 38.7344 28.4074 38.9004 28.6184 39.0215C28.8293 39.1387 29.0813 39.1973 29.3742 39.1973C29.7336 39.1973 30.0305 39.1211 30.2648 38.9688C30.4992 38.8164 30.6848 38.6152 30.8215 38.3652C30.9621 38.1152 31.0715 37.8438 31.1496 37.5508V36.1387C31.1066 35.9238 31.0402 35.7168 30.9504 35.5176C30.8645 35.3145 30.7512 35.1348 30.6105 34.9785C30.4738 34.8184 30.3039 34.6914 30.1008 34.5977C29.8977 34.5039 29.6594 34.457 29.3859 34.457C29.0891 34.457 28.8332 34.5195 28.6184 34.6445C28.4074 34.7656 28.2336 34.9336 28.0969 35.1484C27.9641 35.3594 27.8645 35.6055 27.798 35.8867C27.7355 36.1641 27.7043 36.4609 27.7043 36.7773ZM33.7293 36.9004V36.7656C33.7293 36.3086 33.7957 35.8848 33.9285 35.4941C34.0613 35.0996 34.2527 34.7578 34.5027 34.4688C34.7527 34.1758 35.0555 33.9492 35.4109 33.7891C35.7664 33.625 36.1648 33.543 36.6063 33.543C37.0516 33.543 37.452 33.625 37.8074 33.7891C38.1668 33.9492 38.4715 34.1758 38.7215 34.4688C38.9754 34.7578 39.1688 35.0996 39.3016 35.4941C39.4344 35.8848 39.5008 36.3086 39.5008 36.7656V36.9004C39.5008 37.3574 39.4344 37.7812 39.3016 38.1719C39.1688 38.5625 38.9754 38.9043 38.7215 39.1973C38.4715 39.4863 38.1688 39.7129 37.8133 39.877C37.4617 40.0371 37.0633 40.1172 36.618 40.1172C36.1727 40.1172 35.7723 40.0371 35.4168 39.877C35.0613 39.7129 34.7566 39.4863 34.5027 39.1973C34.2527 38.9043 34.0613 38.5625 33.9285 38.1719C33.7957 37.7812 33.7293 37.3574 33.7293 36.9004ZM34.8133 36.7656V36.9004C34.8133 37.2168 34.8504 37.5156 34.9246 37.7969C34.9988 38.0742 35.1102 38.3203 35.2586 38.5352C35.4109 38.75 35.6004 38.9199 35.827 39.0449C36.0535 39.166 36.3172 39.2266 36.618 39.2266C36.9148 39.2266 37.1746 39.166 37.3973 39.0449C37.6238 38.9199 37.8113 38.75 37.9598 38.5352C38.1082 38.3203 38.2195 38.0742 38.2938 37.7969C38.3719 37.5156 38.4109 37.2168 38.4109 36.9004V36.7656C38.4109 36.4531 38.3719 36.1582 38.2938 35.8809C38.2195 35.5996 38.1063 35.3516 37.9539 35.1367C37.8055 34.918 37.618 34.7461 37.3914 34.6211C37.1688 34.4961 36.907 34.4336 36.6063 34.4336C36.3094 34.4336 36.0477 34.4961 35.8211 34.6211C35.5984 34.7461 35.4109 34.918 35.2586 35.1367C35.1102 35.3516 34.9988 35.5996 34.9246 35.8809C34.8504 36.1582 34.8133 36.4531 34.8133 36.7656ZM42.3441 34.6562V40H41.2602V33.6602H42.3148L42.3441 34.6562ZM44.3246 33.625L44.3188 34.6328C44.2289 34.6133 44.143 34.6016 44.0609 34.5977C43.9828 34.5898 43.893 34.5859 43.7914 34.5859C43.5414 34.5859 43.3207 34.625 43.1293 34.7031C42.9379 34.7812 42.7758 34.8906 42.643 35.0312C42.5102 35.1719 42.4047 35.3398 42.3266 35.5352C42.2523 35.7266 42.2035 35.9375 42.1801 36.168L41.8754 36.3438C41.8754 35.9609 41.9125 35.6016 41.9867 35.2656C42.0648 34.9297 42.184 34.6328 42.3441 34.375C42.5043 34.1133 42.7074 33.9102 42.9535 33.7656C43.2035 33.6172 43.5004 33.543 43.8441 33.543C43.9223 33.543 44.0121 33.5527 44.1137 33.5723C44.2152 33.5879 44.2855 33.6055 44.3246 33.625ZM46.9043 33.6602V40H45.8145V33.6602H46.9043ZM45.7324 31.9785C45.7324 31.8027 45.7852 31.6543 45.8906 31.5332C46 31.4121 46.1602 31.3516 46.3711 31.3516C46.5781 31.3516 46.7363 31.4121 46.8457 31.5332C46.959 31.6543 47.0156 31.8027 47.0156 31.9785C47.0156 32.1465 46.959 32.291 46.8457 32.4121C46.7363 32.5293 46.5781 32.5879 46.3711 32.5879C46.1602 32.5879 46 32.5293 45.8906 32.4121C45.7852 32.291 45.7324 32.1465 45.7324 31.9785ZM51.6754 40.1172C51.234 40.1172 50.8336 40.043 50.4742 39.8945C50.1188 39.7422 49.8121 39.5293 49.5543 39.2559C49.3004 38.9824 49.1051 38.6582 48.9684 38.2832C48.8316 37.9082 48.7633 37.498 48.7633 37.0527V36.8066C48.7633 36.291 48.8395 35.832 48.9918 35.4297C49.1441 35.0234 49.3512 34.6797 49.6129 34.3984C49.8746 34.1172 50.1715 33.9043 50.5035 33.7598C50.8355 33.6152 51.1793 33.543 51.5348 33.543C51.9879 33.543 52.3785 33.6211 52.7066 33.7773C53.0387 33.9336 53.3102 34.1523 53.5211 34.4336C53.732 34.7109 53.8883 35.0391 53.9898 35.418C54.0914 35.793 54.1422 36.2031 54.1422 36.6484V37.1348H49.4078V36.25H53.0582V36.168C53.0426 35.8867 52.984 35.6133 52.8824 35.3477C52.7848 35.082 52.6285 34.8633 52.4137 34.6914C52.1988 34.5195 51.9059 34.4336 51.5348 34.4336C51.2887 34.4336 51.0621 34.4863 50.8551 34.5918C50.648 34.6934 50.4703 34.8457 50.3219 35.0488C50.1734 35.252 50.0582 35.5 49.9762 35.793C49.8941 36.0859 49.8531 36.4238 49.8531 36.8066V37.0527C49.8531 37.3535 49.8941 37.6367 49.9762 37.9023C50.0621 38.1641 50.1852 38.3945 50.3453 38.5938C50.5094 38.793 50.7066 38.9492 50.9371 39.0625C51.1715 39.1758 51.4371 39.2324 51.734 39.2324C52.1168 39.2324 52.441 39.1543 52.7066 38.998C52.9723 38.8418 53.2047 38.6328 53.4039 38.3711L54.0602 38.8926C53.9234 39.0996 53.7496 39.2969 53.5387 39.4844C53.3277 39.6719 53.068 39.8242 52.7594 39.9414C52.4547 40.0586 52.0934 40.1172 51.6754 40.1172ZM59.4992 38.3184C59.4992 38.1621 59.4641 38.0176 59.3937 37.8848C59.3273 37.748 59.1887 37.625 58.9777 37.5156C58.7707 37.4023 58.4582 37.3047 58.0402 37.2227C57.6887 37.1484 57.3703 37.0605 57.0852 36.959C56.8039 36.8574 56.5637 36.7344 56.3645 36.5898C56.1691 36.4453 56.0187 36.2754 55.9133 36.0801C55.8078 35.8848 55.7551 35.6562 55.7551 35.3945C55.7551 35.1445 55.8098 34.9082 55.9191 34.6855C56.0324 34.4629 56.1906 34.2656 56.3937 34.0938C56.6008 33.9219 56.8488 33.7871 57.1379 33.6895C57.427 33.5918 57.7492 33.543 58.1047 33.543C58.6125 33.543 59.0461 33.6328 59.4055 33.8125C59.7648 33.9922 60.0402 34.2324 60.2316 34.5332C60.423 34.8301 60.5187 35.1602 60.5187 35.5234H59.4348C59.4348 35.3477 59.382 35.1777 59.2766 35.0137C59.175 34.8457 59.0246 34.707 58.8254 34.5977C58.6301 34.4883 58.3898 34.4336 58.1047 34.4336C57.8039 34.4336 57.5598 34.4805 57.3723 34.5742C57.1887 34.6641 57.0539 34.7793 56.968 34.9199C56.8859 35.0605 56.8449 35.209 56.8449 35.3652C56.8449 35.4824 56.8645 35.5879 56.9035 35.6816C56.9465 35.7715 57.0207 35.8555 57.1262 35.9336C57.2316 36.0078 57.3801 36.0781 57.5715 36.1445C57.7629 36.2109 58.007 36.2773 58.3039 36.3438C58.8234 36.4609 59.2512 36.6016 59.5871 36.7656C59.923 36.9297 60.173 37.1309 60.3371 37.3691C60.5012 37.6074 60.5832 37.8965 60.5832 38.2363C60.5832 38.5137 60.5246 38.7676 60.4074 38.998C60.2941 39.2285 60.1281 39.4277 59.9094 39.5957C59.6945 39.7598 59.4367 39.8887 59.1359 39.9824C58.8391 40.0723 58.5051 40.1172 58.134 40.1172C57.5754 40.1172 57.1027 40.0176 56.716 39.8184C56.3293 39.6191 56.0363 39.3613 55.8371 39.0449C55.6379 38.7285 55.5383 38.3945 55.5383 38.043H56.6281C56.6437 38.3398 56.7297 38.5762 56.8859 38.752C57.0422 38.9238 57.2336 39.0469 57.4602 39.1211C57.6867 39.1914 57.9113 39.2266 58.134 39.2266C58.4309 39.2266 58.6789 39.1875 58.8781 39.1094C59.0812 39.0312 59.2355 38.9238 59.341 38.7871C59.4465 38.6504 59.4992 38.4941 59.4992 38.3184Z" fill="black"/>
</svg>
