<svg width="88" height="22" viewBox="0 0 88 22" fill="none" xmlns="http://www.w3.org/2000/svg">
<rect width="88" height="22" rx="5" fill="url(#paint0_linear_108_14054)"/>
<path d="M11.9489 7.9L9.54891 14.5H7.93891L5.52891 7.9H6.98891L8.37891 12.1L8.75891 13.4L9.12891 12.11L10.5289 7.9H11.9489ZM13.1781 8.78C12.8915 8.78 12.6781 8.72 12.5381 8.6C12.3981 8.47333 12.3281 8.29 12.3281 8.05C12.3281 7.80333 12.3981 7.62 12.5381 7.5C12.6781 7.37333 12.8915 7.31 13.1781 7.31C13.4648 7.31 13.6781 7.37333 13.8181 7.5C13.9581 7.62 14.0281 7.80333 14.0281 8.05C14.0281 8.29 13.9581 8.47333 13.8181 8.6C13.6781 8.72 13.4648 8.78 13.1781 8.78ZM13.8581 9.5V14.5H12.4881V9.5H13.8581ZM17.3104 14.6C16.7837 14.6 16.3237 14.4967 15.9304 14.29C15.5437 14.0833 15.2437 13.7867 15.0304 13.4C14.8171 13.0133 14.7104 12.5467 14.7104 12C14.7104 11.4533 14.8171 10.9867 15.0304 10.6C15.2437 10.2133 15.5404 9.91667 15.9204 9.71C16.3071 9.50333 16.7471 9.4 17.2404 9.4C17.7471 9.4 18.1771 9.50333 18.5304 9.71C18.8837 9.91 19.1537 10.1867 19.3404 10.54C19.5271 10.8867 19.6204 11.2833 19.6204 11.73C19.6204 11.8633 19.6171 11.99 19.6104 12.11C19.6037 12.23 19.5937 12.3367 19.5804 12.43H15.5904V11.48H18.9804L18.3204 11.72C18.3204 11.3 18.2237 10.9767 18.0304 10.75C17.8437 10.5233 17.5771 10.41 17.2304 10.41C16.9771 10.41 16.7571 10.47 16.5704 10.59C16.3904 10.71 16.2537 10.89 16.1604 11.13C16.0671 11.3633 16.0204 11.66 16.0204 12.02C16.0204 12.3733 16.0704 12.6667 16.1704 12.9C16.2771 13.1267 16.4237 13.2967 16.6104 13.41C16.8037 13.5233 17.0337 13.58 17.3004 13.58C17.5937 13.58 17.8304 13.5233 18.0104 13.41C18.1904 13.2967 18.3304 13.14 18.4304 12.94L19.5204 13.36C19.4137 13.62 19.2504 13.8433 19.0304 14.03C18.8171 14.2167 18.5604 14.36 18.2604 14.46C17.9671 14.5533 17.6504 14.6 17.3104 14.6ZM26.7747 9.5H28.2347L26.6347 14.5H25.0547L23.9647 11.1L22.9147 14.5H21.3347L19.7347 9.5H21.1947L22.1947 13.33L23.3047 9.5H24.6647L25.7847 13.33L26.7747 9.5ZM34.1962 7.9C34.7029 7.9 35.1363 7.98667 35.4963 8.16C35.8563 8.32667 36.1329 8.57 36.3263 8.89C36.5263 9.20333 36.6262 9.58333 36.6262 10.03C36.6262 10.4767 36.5263 10.86 36.3263 11.18C36.1329 11.4933 35.8563 11.7367 35.4963 11.91C35.1363 12.0767 34.7029 12.16 34.1962 12.16H32.8062V14.5H31.4262V7.9H34.1962ZM33.9862 11.07C34.3996 11.07 34.7096 10.9833 34.9163 10.81C35.1229 10.63 35.2263 10.37 35.2263 10.03C35.2263 9.68333 35.1229 9.42333 34.9163 9.25C34.7096 9.07667 34.3996 8.99 33.9862 8.99H32.8062V11.07H33.9862ZM37.4311 14.5V9.5H38.6211L38.7111 10.48C38.8444 10.1333 39.0378 9.86667 39.2911 9.68C39.5511 9.49333 39.8744 9.4 40.2611 9.4C40.3744 9.4 40.4778 9.41 40.5711 9.43C40.6644 9.45 40.7411 9.47667 40.8011 9.51L40.6411 10.66C40.5744 10.6333 40.4911 10.6133 40.3911 10.6C40.2978 10.5867 40.1744 10.58 40.0211 10.58C39.8211 10.58 39.6278 10.63 39.4411 10.73C39.2544 10.8233 39.1011 10.97 38.9811 11.17C38.8611 11.3633 38.8011 11.61 38.8011 11.91V14.5H37.4311ZM43.5122 9.4C44.0189 9.4 44.4622 9.50333 44.8422 9.71C45.2289 9.91667 45.5289 10.2133 45.7422 10.6C45.9622 10.9867 46.0722 11.4533 46.0722 12C46.0722 12.54 45.9622 13.0067 45.7422 13.4C45.5289 13.7867 45.2289 14.0833 44.8422 14.29C44.4622 14.4967 44.0189 14.6 43.5122 14.6C43.0122 14.6 42.5689 14.4967 42.1822 14.29C41.7955 14.0833 41.4922 13.7867 41.2722 13.4C41.0589 13.0067 40.9522 12.54 40.9522 12C40.9522 11.4533 41.0589 10.9867 41.2722 10.6C41.4922 10.2133 41.7955 9.91667 42.1822 9.71C42.5689 9.50333 43.0122 9.4 43.5122 9.4ZM43.5122 10.42C43.2589 10.42 43.0422 10.48 42.8622 10.6C42.6889 10.7133 42.5555 10.8867 42.4622 11.12C42.3689 11.3533 42.3222 11.6467 42.3222 12C42.3222 12.3533 42.3689 12.6467 42.4622 12.88C42.5555 13.1133 42.6889 13.29 42.8622 13.41C43.0422 13.5233 43.2589 13.58 43.5122 13.58C43.7589 13.58 43.9689 13.5233 44.1422 13.41C44.3222 13.29 44.4589 13.1133 44.5522 12.88C44.6455 12.6467 44.6922 12.3533 44.6922 12C44.6922 11.6467 44.6455 11.3533 44.5522 11.12C44.4589 10.8867 44.3222 10.7133 44.1422 10.6C43.9689 10.48 43.7589 10.42 43.5122 10.42ZM48.7885 14.6C48.3752 14.6 48.0052 14.4967 47.6785 14.29C47.3585 14.0833 47.1052 13.7867 46.9185 13.4C46.7385 13.0133 46.6485 12.55 46.6485 12.01C46.6485 11.4567 46.7452 10.9867 46.9385 10.6C47.1318 10.2067 47.3918 9.91 47.7185 9.71C48.0518 9.50333 48.4252 9.4 48.8385 9.4C49.2785 9.4 49.6418 9.52667 49.9285 9.78C50.2152 10.0333 50.4018 10.36 50.4885 10.76L50.3585 10.92V7.31H51.7285V14.5H50.4985L50.4085 12.98L50.5785 13.06C50.5318 13.3733 50.4252 13.6467 50.2585 13.88C50.0918 14.1067 49.8818 14.2833 49.6285 14.41C49.3752 14.5367 49.0952 14.6 48.7885 14.6ZM49.1885 13.55C49.4285 13.55 49.6352 13.49 49.8085 13.37C49.9818 13.2433 50.1152 13.06 50.2085 12.82C50.3085 12.58 50.3585 12.2933 50.3585 11.96C50.3585 11.64 50.3118 11.37 50.2185 11.15C50.1252 10.9233 49.9918 10.75 49.8185 10.63C49.6452 10.51 49.4418 10.45 49.2085 10.45C48.8352 10.45 48.5418 10.5833 48.3285 10.85C48.1218 11.11 48.0185 11.4933 48.0185 12C48.0185 12.5067 48.1218 12.8933 48.3285 13.16C48.5352 13.42 48.8218 13.55 49.1885 13.55ZM54.588 14.6C54.2547 14.6 53.9547 14.54 53.688 14.42C53.4214 14.3 53.208 14.11 53.048 13.85C52.8947 13.5833 52.818 13.24 52.818 12.82V9.5H54.188V12.49C54.188 12.8767 54.268 13.1467 54.428 13.3C54.588 13.4467 54.818 13.52 55.118 13.52C55.258 13.52 55.3947 13.4967 55.528 13.45C55.6614 13.3967 55.778 13.3167 55.878 13.21C55.9847 13.1033 56.068 12.9667 56.128 12.8C56.188 12.6267 56.218 12.4233 56.218 12.19V9.5H57.588V14.5H56.368L56.318 13.63C56.1514 13.9633 55.9214 14.21 55.628 14.37C55.3414 14.5233 54.9947 14.6 54.588 14.6ZM60.9797 9.4C61.4264 9.4 61.803 9.46667 62.1097 9.6C62.423 9.72667 62.673 9.90333 62.8597 10.13C63.053 10.35 63.1897 10.5967 63.2697 10.87L61.9897 11.33C61.923 11.03 61.8097 10.8033 61.6497 10.65C61.4897 10.4967 61.273 10.42 60.9997 10.42C60.7464 10.42 60.5297 10.48 60.3497 10.6C60.1697 10.7133 60.033 10.89 59.9397 11.13C59.8464 11.3633 59.7997 11.6567 59.7997 12.01C59.7997 12.3633 59.8464 12.6567 59.9397 12.89C60.0397 13.1233 60.1797 13.2967 60.3597 13.41C60.5464 13.5233 60.763 13.58 61.0097 13.58C61.2097 13.58 61.3797 13.5467 61.5197 13.48C61.6597 13.4067 61.773 13.3033 61.8597 13.17C61.953 13.0367 62.0164 12.8767 62.0497 12.69L63.2897 13.09C63.2164 13.39 63.0797 13.6533 62.8797 13.88C62.6797 14.1067 62.423 14.2833 62.1097 14.41C61.7964 14.5367 61.433 14.6 61.0197 14.6C60.5064 14.6 60.053 14.4967 59.6597 14.29C59.2664 14.0833 58.963 13.7867 58.7497 13.4C58.5364 13.0133 58.4297 12.5467 58.4297 12C58.4297 11.4533 58.5364 10.9867 58.7497 10.6C58.963 10.2133 59.263 9.91667 59.6497 9.71C60.0364 9.50333 60.4797 9.4 60.9797 9.4ZM65.8042 7.97V12.87C65.8042 13.11 65.8642 13.2867 65.9842 13.4C66.1109 13.5067 66.2809 13.56 66.4942 13.56C66.6609 13.56 66.8076 13.5367 66.9342 13.49C67.0609 13.4367 67.1742 13.3667 67.2742 13.28L67.4942 14.19C67.3342 14.3167 67.1342 14.4167 66.8942 14.49C66.6542 14.5633 66.4009 14.6 66.1342 14.6C65.8009 14.6 65.5042 14.55 65.2442 14.45C64.9909 14.35 64.7909 14.19 64.6442 13.97C64.5042 13.75 64.4342 13.4567 64.4342 13.09V8.35L65.8042 7.97ZM67.4042 9.5V10.52H63.5142V9.5H67.4042Z" fill="white"/>
<g clip-path="url(#clip0_108_14054)">
<path d="M81.6321 11.4417C81.7491 11.3245 81.8149 11.1657 81.8149 11C81.8149 10.8344 81.7491 10.6756 81.6321 10.5584L79.2754 8.20045C79.1582 8.0832 78.9992 8.01733 78.8333 8.01733C78.6675 8.01733 78.5085 8.0832 78.3913 8.20045C78.274 8.3177 78.2081 8.47672 78.2081 8.64253C78.2081 8.80835 78.274 8.96737 78.3913 9.08462L79.6813 10.375L74.875 10.375C74.7093 10.375 74.5503 10.4409 74.4331 10.5581C74.3159 10.6753 74.25 10.8343 74.25 11C74.25 11.1658 74.3159 11.3248 74.4331 11.442C74.5503 11.5592 74.7093 11.625 74.875 11.625L79.6813 11.625L78.3913 12.915C78.3332 12.9731 78.2872 13.042 78.2557 13.1179C78.2243 13.1937 78.2081 13.275 78.2081 13.3571C78.2081 13.4392 78.2243 13.5205 78.2557 13.5964C78.2872 13.6722 78.3332 13.7411 78.3913 13.7992C78.4493 13.8573 78.5182 13.9033 78.5941 13.9347C78.6699 13.9661 78.7512 13.9823 78.8333 13.9823C78.9154 13.9823 78.9967 13.9661 79.0726 13.9347C79.1485 13.9033 79.2174 13.8573 79.2754 13.7992L81.6321 11.4417Z" fill="white"/>
</g>
<defs>
<linearGradient id="paint0_linear_108_14054" x1="0" y1="11" x2="88" y2="11" gradientUnits="userSpaceOnUse">
<stop stop-color="#EB3030"/>
<stop offset="1" stop-color="#851B1B"/>
</linearGradient>
<clipPath id="clip0_108_14054">
<rect width="10" height="10" fill="white" transform="matrix(0 1 -1 0 83 6)"/>
</clipPath>
</defs>
</svg>
