<svg width="68" height="22" viewBox="0 0 68 22" fill="none" xmlns="http://www.w3.org/2000/svg">
<path d="M6.67992 14.2051L9.19359 6.96875H10.4182L7.26 15.5H6.38695L6.67992 14.2051ZM4.33031 6.96875L6.82055 14.2051L7.13109 15.5H6.25805L3.1057 6.96875H4.33031ZM12.2603 9.16016V15.5H11.1705V9.16016H12.2603ZM11.0884 7.47852C11.0884 7.30273 11.1412 7.1543 11.2466 7.0332C11.356 6.91211 11.5162 6.85156 11.7271 6.85156C11.9341 6.85156 12.0923 6.91211 12.2017 7.0332C12.315 7.1543 12.3716 7.30273 12.3716 7.47852C12.3716 7.64648 12.315 7.79102 12.2017 7.91211C12.0923 8.0293 11.9341 8.08789 11.7271 8.08789C11.5162 8.08789 11.356 8.0293 11.2466 7.91211C11.1412 7.79102 11.0884 7.64648 11.0884 7.47852ZM16.3114 15.6172C15.87 15.6172 15.4696 15.543 15.1102 15.3945C14.7548 15.2422 14.4481 15.0293 14.1903 14.7559C13.9364 14.4824 13.7411 14.1582 13.6044 13.7832C13.4677 13.4082 13.3993 12.998 13.3993 12.5527V12.3066C13.3993 11.791 13.4755 11.332 13.6278 10.9297C13.7802 10.5234 13.9872 10.1797 14.2489 9.89844C14.5106 9.61719 14.8075 9.4043 15.1395 9.25977C15.4716 9.11523 15.8153 9.04297 16.1708 9.04297C16.6239 9.04297 17.0145 9.12109 17.3427 9.27734C17.6747 9.43359 17.9462 9.65234 18.1571 9.93359C18.368 10.2109 18.5243 10.5391 18.6259 10.918C18.7274 11.293 18.7782 11.7031 18.7782 12.1484V12.6348H14.0438V11.75H17.6942V11.668C17.6786 11.3867 17.62 11.1133 17.5184 10.8477C17.4208 10.582 17.2645 10.3633 17.0497 10.1914C16.8348 10.0195 16.5419 9.93359 16.1708 9.93359C15.9247 9.93359 15.6981 9.98633 15.4911 10.0918C15.2841 10.1934 15.1063 10.3457 14.9579 10.5488C14.8095 10.752 14.6942 11 14.6122 11.293C14.5302 11.5859 14.4891 11.9238 14.4891 12.3066V12.5527C14.4891 12.8535 14.5302 13.1367 14.6122 13.4023C14.6981 13.6641 14.8212 13.8945 14.9813 14.0938C15.1454 14.293 15.3427 14.4492 15.5731 14.5625C15.8075 14.6758 16.0731 14.7324 16.37 14.7324C16.7528 14.7324 17.077 14.6543 17.3427 14.498C17.6083 14.3418 17.8407 14.1328 18.0399 13.8711L18.6962 14.3926C18.5595 14.5996 18.3856 14.7969 18.1747 14.9844C17.9637 15.1719 17.704 15.3242 17.3954 15.4414C17.0907 15.5586 16.7294 15.6172 16.3114 15.6172ZM21.3293 14.375L22.9582 9.16016H23.673L23.5324 10.1973L21.8742 15.5H21.177L21.3293 14.375ZM20.2336 9.16016L21.6223 14.4336L21.7219 15.5H20.9895L19.1496 9.16016H20.2336ZM25.2316 14.3926L26.5559 9.16016H27.634L25.7941 15.5H25.0676L25.2316 14.3926ZM23.8312 9.16016L25.425 14.2871L25.6066 15.5H24.9152L23.2102 10.1855L23.0695 9.16016H23.8312ZM33.5565 15.5H31.7752L31.787 14.5801H33.5565C34.1659 14.5801 34.6737 14.4531 35.0799 14.1992C35.4862 13.9414 35.7909 13.582 35.994 13.1211C36.201 12.6562 36.3045 12.1133 36.3045 11.4922V10.9707C36.3045 10.4824 36.2459 10.0488 36.1287 9.66992C36.0116 9.28711 35.8397 8.96484 35.6131 8.70312C35.3866 8.4375 35.1092 8.23633 34.7811 8.09961C34.4569 7.96289 34.0838 7.89453 33.662 7.89453H31.7401V6.96875H33.662C34.2205 6.96875 34.7303 7.0625 35.1912 7.25C35.6522 7.43359 36.0487 7.70117 36.3807 8.05273C36.7166 8.40039 36.9745 8.82227 37.1541 9.31836C37.3338 9.81055 37.4237 10.3652 37.4237 10.9824V11.4922C37.4237 12.1094 37.3338 12.666 37.1541 13.1621C36.9745 13.6543 36.7147 14.0742 36.3748 14.4219C36.0389 14.7695 35.6327 15.0371 35.1561 15.2246C34.6834 15.4082 34.1502 15.5 33.5565 15.5ZM32.3787 6.96875V15.5H31.2479V6.96875H32.3787ZM41.2697 15.6172C40.8283 15.6172 40.4279 15.543 40.0685 15.3945C39.7131 15.2422 39.4064 15.0293 39.1486 14.7559C38.8947 14.4824 38.6994 14.1582 38.5627 13.7832C38.4259 13.4082 38.3576 12.998 38.3576 12.5527V12.3066C38.3576 11.791 38.4338 11.332 38.5861 10.9297C38.7384 10.5234 38.9455 10.1797 39.2072 9.89844C39.4689 9.61719 39.7658 9.4043 40.0978 9.25977C40.4298 9.11523 40.7736 9.04297 41.1291 9.04297C41.5822 9.04297 41.9728 9.12109 42.3009 9.27734C42.633 9.43359 42.9045 9.65234 43.1154 9.93359C43.3263 10.2109 43.4826 10.5391 43.5841 10.918C43.6857 11.293 43.7365 11.7031 43.7365 12.1484V12.6348H39.0021V11.75H42.6525V11.668C42.6369 11.3867 42.5783 11.1133 42.4767 10.8477C42.3791 10.582 42.2228 10.3633 42.008 10.1914C41.7931 10.0195 41.5002 9.93359 41.1291 9.93359C40.883 9.93359 40.6564 9.98633 40.4494 10.0918C40.2423 10.1934 40.0646 10.3457 39.9162 10.5488C39.7677 10.752 39.6525 11 39.5705 11.293C39.4884 11.5859 39.4474 11.9238 39.4474 12.3066V12.5527C39.4474 12.8535 39.4884 13.1367 39.5705 13.4023C39.6564 13.6641 39.7795 13.8945 39.9396 14.0938C40.1037 14.293 40.3009 14.4492 40.5314 14.5625C40.7658 14.6758 41.0314 14.7324 41.3283 14.7324C41.7111 14.7324 42.0353 14.6543 42.3009 14.498C42.5666 14.3418 42.799 14.1328 42.9982 13.8711L43.6545 14.3926C43.5177 14.5996 43.3439 14.7969 43.133 14.9844C42.922 15.1719 42.6623 15.3242 42.3537 15.4414C42.049 15.5586 41.6877 15.6172 41.2697 15.6172ZM47.3364 9.16016V9.99219H43.9087V9.16016H47.3364ZM45.0688 7.61914H46.1528V13.9297C46.1528 14.1445 46.186 14.3066 46.2524 14.416C46.3188 14.5254 46.4048 14.5977 46.5102 14.6328C46.6157 14.668 46.729 14.6855 46.8501 14.6855C46.9399 14.6855 47.0337 14.6777 47.1313 14.6621C47.2329 14.6426 47.3091 14.627 47.3598 14.6152L47.3657 15.5C47.2798 15.5273 47.1665 15.5527 47.0259 15.5762C46.8891 15.6035 46.7231 15.6172 46.5278 15.6172C46.2622 15.6172 46.018 15.5645 45.7954 15.459C45.5727 15.3535 45.395 15.1777 45.2622 14.9316C45.1333 14.6816 45.0688 14.3457 45.0688 13.9238V7.61914ZM52.0262 14.416V11.1523C52.0262 10.9023 51.9754 10.6855 51.8738 10.502C51.7762 10.3145 51.6277 10.1699 51.4285 10.0684C51.2293 9.9668 50.9832 9.91602 50.6902 9.91602C50.4168 9.91602 50.1766 9.96289 49.9695 10.0566C49.7664 10.1504 49.6062 10.2734 49.4891 10.4258C49.3758 10.5781 49.3191 10.7422 49.3191 10.918H48.2352C48.2352 10.6914 48.2937 10.4668 48.4109 10.2441C48.5281 10.0215 48.6961 9.82031 48.9148 9.64062C49.1375 9.45703 49.4031 9.3125 49.7117 9.20703C50.0242 9.09766 50.3719 9.04297 50.7547 9.04297C51.2156 9.04297 51.6219 9.12109 51.9734 9.27734C52.3289 9.43359 52.6062 9.66992 52.8055 9.98633C53.0086 10.2988 53.1102 10.6914 53.1102 11.1641V14.1172C53.1102 14.3281 53.1277 14.5527 53.1629 14.791C53.202 15.0293 53.2586 15.2344 53.3328 15.4062V15.5H52.202C52.1473 15.375 52.1043 15.209 52.073 15.002C52.0418 14.791 52.0262 14.5957 52.0262 14.416ZM52.2137 11.6562L52.2254 12.418H51.1297C50.8211 12.418 50.5457 12.4434 50.3035 12.4941C50.0613 12.541 49.8582 12.6133 49.6941 12.7109C49.5301 12.8086 49.4051 12.9316 49.3191 13.0801C49.2332 13.2246 49.1902 13.3945 49.1902 13.5898C49.1902 13.7891 49.2352 13.9707 49.325 14.1348C49.4148 14.2988 49.5496 14.4297 49.7293 14.5273C49.9129 14.6211 50.1375 14.668 50.4031 14.668C50.7352 14.668 51.0281 14.5977 51.282 14.457C51.5359 14.3164 51.7371 14.1445 51.8855 13.9414C52.0379 13.7383 52.1199 13.541 52.1316 13.3496L52.5945 13.8711C52.5672 14.0352 52.493 14.2168 52.3719 14.416C52.2508 14.6152 52.0887 14.8066 51.8855 14.9902C51.6863 15.1699 51.448 15.3203 51.1707 15.4414C50.8973 15.5586 50.5887 15.6172 50.2449 15.6172C49.8152 15.6172 49.4383 15.5332 49.1141 15.3652C48.7937 15.1973 48.5437 14.9727 48.3641 14.6914C48.1883 14.4062 48.1004 14.0879 48.1004 13.7363C48.1004 13.3965 48.1668 13.0977 48.2996 12.8398C48.4324 12.5781 48.6238 12.3613 48.8738 12.1895C49.1238 12.0137 49.4246 11.8809 49.7762 11.791C50.1277 11.7012 50.5203 11.6562 50.9539 11.6562H52.2137ZM55.673 9.16016V15.5H54.5831V9.16016H55.673ZM54.5011 7.47852C54.5011 7.30273 54.5538 7.1543 54.6593 7.0332C54.7687 6.91211 54.9288 6.85156 55.1398 6.85156C55.3468 6.85156 55.505 6.91211 55.6144 7.0332C55.7277 7.1543 55.7843 7.30273 55.7843 7.47852C55.7843 7.64648 55.7277 7.79102 55.6144 7.91211C55.505 8.0293 55.3468 8.08789 55.1398 8.08789C54.9288 8.08789 54.7687 8.0293 54.6593 7.91211C54.5538 7.79102 54.5011 7.64648 54.5011 7.47852ZM58.2709 6.5V15.5H57.1811V6.5H58.2709ZM63.3826 13.8184C63.3826 13.6621 63.3474 13.5176 63.2771 13.3848C63.2107 13.248 63.072 13.125 62.8611 13.0156C62.6541 12.9023 62.3416 12.8047 61.9236 12.7227C61.572 12.6484 61.2537 12.5605 60.9685 12.459C60.6873 12.3574 60.447 12.2344 60.2478 12.0898C60.0525 11.9453 59.9021 11.7754 59.7966 11.5801C59.6912 11.3848 59.6384 11.1562 59.6384 10.8945C59.6384 10.6445 59.6931 10.4082 59.8025 10.1855C59.9158 9.96289 60.074 9.76562 60.2771 9.59375C60.4841 9.42188 60.7322 9.28711 61.0212 9.18945C61.3103 9.0918 61.6326 9.04297 61.988 9.04297C62.4959 9.04297 62.9295 9.13281 63.2888 9.3125C63.6482 9.49219 63.9236 9.73242 64.115 10.0332C64.3064 10.3301 64.4021 10.6602 64.4021 11.0234H63.3181C63.3181 10.8477 63.2654 10.6777 63.1599 10.5137C63.0584 10.3457 62.908 10.207 62.7087 10.0977C62.5134 9.98828 62.2732 9.93359 61.988 9.93359C61.6873 9.93359 61.4431 9.98047 61.2556 10.0742C61.072 10.1641 60.9373 10.2793 60.8513 10.4199C60.7693 10.5605 60.7283 10.709 60.7283 10.8652C60.7283 10.9824 60.7478 11.0879 60.7869 11.1816C60.8298 11.2715 60.9041 11.3555 61.0095 11.4336C61.115 11.5078 61.2634 11.5781 61.4548 11.6445C61.6462 11.7109 61.8904 11.7773 62.1873 11.8438C62.7068 11.9609 63.1345 12.1016 63.4705 12.2656C63.8064 12.4297 64.0564 12.6309 64.2205 12.8691C64.3845 13.1074 64.4666 13.3965 64.4666 13.7363C64.4666 14.0137 64.408 14.2676 64.2908 14.498C64.1775 14.7285 64.0115 14.9277 63.7927 15.0957C63.5779 15.2598 63.3201 15.3887 63.0193 15.4824C62.7224 15.5723 62.3884 15.6172 62.0173 15.6172C61.4587 15.6172 60.9861 15.5176 60.5994 15.3184C60.2127 15.1191 59.9197 14.8613 59.7205 14.5449C59.5212 14.2285 59.4216 13.8945 59.4216 13.543H60.5115C60.5271 13.8398 60.613 14.0762 60.7693 14.252C60.9255 14.4238 61.117 14.5469 61.3435 14.6211C61.5701 14.6914 61.7947 14.7266 62.0173 14.7266C62.3142 14.7266 62.5623 14.6875 62.7615 14.6094C62.9646 14.5312 63.1189 14.4238 63.2244 14.2871C63.3298 14.1504 63.3826 13.9941 63.3826 13.8184Z" fill="#004CFF"/>
<path d="M2.93578 16.6719H65.0584V17.2578H2.93578V16.6719Z" fill="#004CFF"/>
</svg>
