<svg width="78" height="30" viewBox="0 0 78 30" fill="none" xmlns="http://www.w3.org/2000/svg">
<rect width="78" height="30" rx="15" fill="url(#paint0_linear_38_9228)"/>
<path d="M16.2141 17.0156L17.8889 11.3906H19.5198L17.0442 18.5H15.97L16.2141 17.0156ZM14.6711 11.3906L16.3411 17.0156L16.595 18.5H15.511L13.05 11.3906H14.6711ZM21.2603 13.2168V18.5H19.8492V13.2168H21.2603ZM19.7613 11.8398C19.7613 11.6348 19.8329 11.4655 19.9761 11.332C20.1194 11.1986 20.3114 11.1318 20.5523 11.1318C20.7899 11.1318 20.9804 11.1986 21.1236 11.332C21.2701 11.4655 21.3433 11.6348 21.3433 11.8398C21.3433 12.0449 21.2701 12.2142 21.1236 12.3477C20.9804 12.4811 20.7899 12.5479 20.5523 12.5479C20.3114 12.5479 20.1194 12.4811 19.9761 12.3477C19.8329 12.2142 19.7613 12.0449 19.7613 11.8398ZM24.5341 18.5977C24.1239 18.5977 23.7561 18.5326 23.4305 18.4023C23.105 18.2689 22.8283 18.085 22.6005 17.8506C22.3759 17.6162 22.2033 17.3444 22.0829 17.0352C21.9624 16.7227 21.9022 16.3906 21.9022 16.0391V15.8438C21.9022 15.4434 21.9592 15.0771 22.0731 14.7451C22.1871 14.4131 22.3498 14.125 22.5614 13.8809C22.7762 13.6367 23.0367 13.4495 23.3427 13.3193C23.6486 13.1859 23.9937 13.1191 24.3778 13.1191C24.7522 13.1191 25.0842 13.181 25.3739 13.3047C25.6636 13.4284 25.9061 13.6042 26.1014 13.832C26.3 14.0599 26.4498 14.3333 26.5507 14.6523C26.6516 14.9681 26.702 15.3197 26.702 15.707V16.293H22.5028V15.3555H25.3202V15.248C25.3202 15.0527 25.2844 14.8786 25.2128 14.7256C25.1444 14.5693 25.0402 14.4456 24.9003 14.3545C24.7603 14.2633 24.5813 14.2178 24.3632 14.2178C24.1776 14.2178 24.0181 14.2585 23.8846 14.3398C23.7512 14.4212 23.6421 14.5352 23.5575 14.6816C23.4761 14.8281 23.4143 15.0007 23.372 15.1992C23.3329 15.3945 23.3134 15.6094 23.3134 15.8438V16.0391C23.3134 16.2507 23.3427 16.446 23.4012 16.625C23.4631 16.804 23.5494 16.9587 23.66 17.0889C23.774 17.2191 23.9107 17.32 24.0702 17.3916C24.233 17.4632 24.4169 17.499 24.622 17.499C24.8759 17.499 25.1119 17.4502 25.33 17.3525C25.5513 17.2516 25.7417 17.1003 25.9012 16.8984L26.5848 17.6406C26.4742 17.8001 26.3228 17.9531 26.1307 18.0996C25.9419 18.2461 25.7141 18.3665 25.4471 18.4609C25.1802 18.5521 24.8759 18.5977 24.5341 18.5977ZM28.6916 17.1328L29.7902 13.2168H30.6838L30.3957 14.7549L29.2971 18.5H28.55L28.6916 17.1328ZM28.135 13.2168L28.9211 17.1279L28.9943 18.5H28.1154L26.7775 13.2168H28.135ZM31.6896 17.0645L32.4563 13.2168H33.8186L32.4807 18.5H31.6066L31.6896 17.0645ZM30.8059 13.2168L31.8996 17.1035L32.051 18.5H31.299L30.2004 14.7598L29.9221 13.2168H30.8059ZM38.6473 18.5H37.0995L37.1092 17.3574H38.6473C39.0314 17.3574 39.3553 17.2712 39.619 17.0986C39.8827 16.9229 40.0812 16.6673 40.2147 16.332C40.3514 15.9967 40.4198 15.5915 40.4198 15.1162V14.7695C40.4198 14.4049 40.3807 14.0843 40.3026 13.8076C40.2277 13.5309 40.1154 13.2982 39.9657 13.1094C39.8159 12.9206 39.632 12.779 39.4139 12.6846C39.1958 12.5869 38.9452 12.5381 38.662 12.5381H37.0702V11.3906H38.662C39.1372 11.3906 39.5718 11.472 39.9657 11.6348C40.3628 11.7943 40.7062 12.0238 40.9959 12.3232C41.2857 12.6227 41.5086 12.9808 41.6649 13.3975C41.8244 13.8109 41.9041 14.2715 41.9041 14.7793V15.1162C41.9041 15.6208 41.8244 16.0814 41.6649 16.498C41.5086 16.9147 41.2857 17.2728 40.9959 17.5723C40.7095 17.8685 40.3661 18.098 39.9657 18.2607C39.5685 18.4202 39.1291 18.5 38.6473 18.5ZM37.9295 11.3906V18.5H36.4647V11.3906H37.9295ZM44.9923 18.5977C44.5822 18.5977 44.2143 18.5326 43.8888 18.4023C43.5633 18.2689 43.2866 18.085 43.0588 17.8506C42.8341 17.6162 42.6616 17.3444 42.5412 17.0352C42.4207 16.7227 42.3605 16.3906 42.3605 16.0391V15.8438C42.3605 15.4434 42.4175 15.0771 42.5314 14.7451C42.6453 14.4131 42.8081 14.125 43.0197 13.8809C43.2345 13.6367 43.4949 13.4495 43.8009 13.3193C44.1069 13.1859 44.452 13.1191 44.8361 13.1191C45.2104 13.1191 45.5425 13.181 45.8322 13.3047C46.1219 13.4284 46.3644 13.6042 46.5597 13.832C46.7583 14.0599 46.908 14.3333 47.0089 14.6523C47.1099 14.9681 47.1603 15.3197 47.1603 15.707V16.293H42.9611V15.3555H45.7785V15.248C45.7785 15.0527 45.7427 14.8786 45.6711 14.7256C45.6027 14.5693 45.4985 14.4456 45.3586 14.3545C45.2186 14.2633 45.0395 14.2178 44.8214 14.2178C44.6359 14.2178 44.4764 14.2585 44.3429 14.3398C44.2095 14.4212 44.1004 14.5352 44.0158 14.6816C43.9344 14.8281 43.8726 15.0007 43.8302 15.1992C43.7912 15.3945 43.7716 15.6094 43.7716 15.8438V16.0391C43.7716 16.2507 43.8009 16.446 43.8595 16.625C43.9214 16.804 44.0076 16.9587 44.1183 17.0889C44.2323 17.2191 44.369 17.32 44.5285 17.3916C44.6912 17.4632 44.8752 17.499 45.0802 17.499C45.3341 17.499 45.5701 17.4502 45.7882 17.3525C46.0096 17.2516 46.2 17.1003 46.3595 16.8984L47.0431 17.6406C46.9324 17.8001 46.7811 17.9531 46.589 18.0996C46.4002 18.2461 46.1724 18.3665 45.9054 18.4609C45.6385 18.5521 45.3341 18.5977 44.9923 18.5977ZM50.229 13.2168V14.2129H47.1528V13.2168H50.229ZM47.9145 11.9131H49.3208V16.9082C49.3208 17.0612 49.3403 17.1784 49.3794 17.2598C49.4217 17.3411 49.4835 17.3981 49.5649 17.4307C49.6463 17.46 49.7488 17.4746 49.8725 17.4746C49.9604 17.4746 50.0386 17.4714 50.1069 17.4648C50.1785 17.4551 50.2387 17.4453 50.2876 17.4355L50.2925 18.4707C50.172 18.5098 50.0418 18.5407 49.9018 18.5635C49.7619 18.5863 49.6072 18.5977 49.438 18.5977C49.1287 18.5977 48.8585 18.5472 48.6274 18.4463C48.3996 18.3421 48.2238 18.1761 48.1001 17.9482C47.9764 17.7204 47.9145 17.4209 47.9145 17.0498V11.9131ZM53.5613 17.3086V14.9551C53.5613 14.7858 53.5337 14.641 53.4783 14.5205C53.423 14.3968 53.3367 14.3008 53.2195 14.2324C53.1056 14.1641 52.9575 14.1299 52.7752 14.1299C52.6189 14.1299 52.4839 14.1576 52.3699 14.2129C52.256 14.265 52.1681 14.3415 52.1062 14.4424C52.0444 14.54 52.0135 14.6556 52.0135 14.7891H50.6072C50.6072 14.5645 50.6593 14.3512 50.7635 14.1494C50.8676 13.9476 51.019 13.7702 51.2176 13.6172C51.4161 13.4609 51.6521 13.3389 51.9256 13.251C52.2023 13.1631 52.5115 13.1191 52.8533 13.1191C53.2635 13.1191 53.6281 13.1875 53.9471 13.3242C54.2661 13.4609 54.5167 13.666 54.699 13.9395C54.8846 14.2129 54.9773 14.5547 54.9773 14.9648V17.2256C54.9773 17.5153 54.9952 17.7529 55.0311 17.9385C55.0669 18.1208 55.1189 18.2803 55.1873 18.417V18.5H53.7664C53.698 18.3568 53.646 18.1777 53.6102 17.9629C53.5776 17.7448 53.5613 17.5267 53.5613 17.3086ZM53.7469 15.2822L53.7566 16.0781H52.9705C52.785 16.0781 52.6238 16.0993 52.4871 16.1416C52.3504 16.1839 52.2381 16.2441 52.1502 16.3223C52.0623 16.3971 51.9972 16.485 51.9549 16.5859C51.9158 16.6868 51.8963 16.7975 51.8963 16.918C51.8963 17.0384 51.924 17.1475 51.9793 17.2451C52.0346 17.3395 52.1144 17.4144 52.2186 17.4697C52.3227 17.5218 52.4448 17.5479 52.5848 17.5479C52.7964 17.5479 52.9803 17.5055 53.1365 17.4209C53.2928 17.3363 53.4132 17.2321 53.4978 17.1084C53.5857 16.9847 53.6313 16.8675 53.6346 16.7568L54.0057 17.3525C53.9536 17.486 53.882 17.6243 53.7908 17.7676C53.7029 17.9108 53.5906 18.0459 53.4539 18.1729C53.3172 18.2965 53.1528 18.3991 52.9607 18.4805C52.7687 18.5586 52.5408 18.5977 52.2771 18.5977C51.9419 18.5977 51.6375 18.5309 51.3641 18.3975C51.0939 18.2607 50.879 18.0736 50.7195 17.8359C50.5633 17.5951 50.4852 17.3216 50.4852 17.0156C50.4852 16.7389 50.5372 16.4932 50.6414 16.2783C50.7456 16.0635 50.8986 15.8828 51.1004 15.7363C51.3055 15.5866 51.561 15.4743 51.867 15.3994C52.173 15.3213 52.5278 15.2822 52.9314 15.2822H53.7469ZM57.2257 13.2168V18.5H55.8146V13.2168H57.2257ZM55.7267 11.8398C55.7267 11.6348 55.7983 11.4655 55.9415 11.332C56.0847 11.1986 56.2768 11.1318 56.5177 11.1318C56.7553 11.1318 56.9458 11.1986 57.089 11.332C57.2355 11.4655 57.3087 11.6348 57.3087 11.8398C57.3087 12.0449 57.2355 12.2142 57.089 12.3477C56.9458 12.4811 56.7553 12.5479 56.5177 12.5479C56.2768 12.5479 56.0847 12.4811 55.9415 12.3477C55.7983 12.2142 55.7267 12.0449 55.7267 11.8398ZM59.5522 11V18.5H58.1411V11H59.5522ZM63.2507 17.04C63.2507 16.9391 63.2214 16.848 63.1628 16.7666C63.1043 16.6852 62.9952 16.6104 62.8357 16.542C62.6795 16.4704 62.4532 16.4053 62.157 16.3467C61.8901 16.2881 61.641 16.2148 61.4099 16.127C61.1821 16.0358 60.9835 15.9268 60.8142 15.7998C60.6482 15.6729 60.518 15.5231 60.4236 15.3506C60.3292 15.1748 60.282 14.9746 60.282 14.75C60.282 14.5286 60.3292 14.3203 60.4236 14.125C60.5212 13.9297 60.6596 13.7572 60.8386 13.6074C61.0209 13.4544 61.2423 13.3356 61.5027 13.251C61.7664 13.1631 62.0626 13.1191 62.3914 13.1191C62.8503 13.1191 63.2442 13.1924 63.573 13.3389C63.905 13.4854 64.1589 13.6872 64.3347 13.9443C64.5138 14.1982 64.6033 14.488 64.6033 14.8135H63.197C63.197 14.6768 63.1677 14.5547 63.1091 14.4473C63.0538 14.3366 62.9659 14.2503 62.8455 14.1885C62.7283 14.1234 62.5753 14.0908 62.3865 14.0908C62.2302 14.0908 62.0951 14.1185 61.9812 14.1738C61.8673 14.2259 61.7794 14.2975 61.7175 14.3887C61.6589 14.4766 61.6296 14.5742 61.6296 14.6816C61.6296 14.763 61.6459 14.8363 61.6785 14.9014C61.7143 14.9632 61.7712 15.0202 61.8494 15.0723C61.9275 15.1243 62.0284 15.1732 62.1521 15.2188C62.2791 15.2611 62.4353 15.3001 62.6209 15.3359C63.0017 15.4141 63.3419 15.5166 63.6414 15.6436C63.9408 15.7673 64.1785 15.9365 64.3543 16.1514C64.53 16.363 64.6179 16.6413 64.6179 16.9863C64.6179 17.2207 64.5658 17.4355 64.4617 17.6309C64.3575 17.8262 64.2078 17.9971 64.0125 18.1436C63.8171 18.2868 63.5828 18.3991 63.3093 18.4805C63.0392 18.5586 62.7348 18.5977 62.3962 18.5977C61.9047 18.5977 61.488 18.5098 61.1462 18.334C60.8077 18.1582 60.5505 17.9352 60.3748 17.665C60.2022 17.3916 60.116 17.1117 60.116 16.8252H61.449C61.4555 17.0173 61.5043 17.1719 61.5955 17.2891C61.6899 17.4062 61.8087 17.4909 61.9519 17.543C62.0984 17.5951 62.2563 17.6211 62.4255 17.6211C62.6078 17.6211 62.7592 17.5967 62.8796 17.5479C63.0001 17.4958 63.0912 17.4274 63.1531 17.3428C63.2182 17.2549 63.2507 17.154 63.2507 17.04Z" fill="white"/>
<defs>
<linearGradient id="paint0_linear_38_9228" x1="0" y1="15" x2="78" y2="15" gradientUnits="userSpaceOnUse">
<stop stop-color="#EB3030"/>
<stop offset="1" stop-color="#851B1B"/>
</linearGradient>
</defs>
</svg>
